<svg width="30" height="24" viewBox="0 0 30 24" fill="none" xmlns="http://www.w3.org/2000/svg">
<path d="M25.3374 2.21683C23.4458 1.30773 21.3977 0.647903 19.2643 0.266669C19.2456 0.266052 19.227 0.269671 19.2098 0.277271C19.1926 0.284871 19.1772 0.296268 19.1648 0.310658C18.9088 0.794531 18.6101 1.42503 18.411 1.90891C16.1481 1.557 13.8469 1.557 11.5841 1.90891C11.385 1.41037 11.0863 0.794531 10.8161 0.310658C10.8019 0.281332 10.7592 0.266669 10.7165 0.266669C8.58314 0.647903 6.54931 1.30773 4.64348 2.21683C4.62925 2.21683 4.61503 2.23149 4.60081 2.24615C0.732258 8.21392 -0.334438 14.0204 0.191799 19.7682C0.191799 19.7976 0.206021 19.8269 0.234466 19.8415C2.79454 21.777 5.25505 22.9501 7.68712 23.7272C7.72978 23.7419 7.77245 23.7272 7.78667 23.6979C8.35558 22.8914 8.86759 22.041 9.30849 21.1465C9.33694 21.0879 9.30849 21.0292 9.2516 21.0146C8.44091 20.692 7.67289 20.3108 6.91909 19.8709C6.8622 19.8415 6.8622 19.7536 6.90487 19.7096C7.06132 19.5923 7.21777 19.4603 7.37422 19.343C7.40266 19.3137 7.44533 19.3137 7.47378 19.3283C12.3664 21.6304 17.6429 21.6304 22.4786 19.3283C22.5071 19.3137 22.5497 19.3137 22.5782 19.343C22.7346 19.475 22.8911 19.5923 23.0475 19.7242C23.1044 19.7682 23.1044 19.8562 23.0333 19.8855C22.2937 20.3401 21.5115 20.7067 20.7008 21.0292C20.6439 21.0439 20.6297 21.1172 20.6439 21.1612C21.099 22.0556 21.6111 22.9061 22.1657 23.7125C22.2084 23.7272 22.2511 23.7419 22.2937 23.7272C24.74 22.9501 27.2005 21.777 29.7606 19.8415C29.7891 19.8269 29.8033 19.7976 29.8033 19.7682C30.4291 13.126 28.765 7.36348 25.3943 2.24615C25.38 2.23149 25.3658 2.21683 25.3374 2.21683ZM10.0481 16.2638C8.58314 16.2638 7.36 14.8708 7.36 13.1553C7.36 11.4397 8.5547 10.0468 10.0481 10.0468C11.5557 10.0468 12.7504 11.4544 12.7361 13.1553C12.7361 14.8708 11.5414 16.2638 10.0481 16.2638ZM19.9612 16.2638C18.4963 16.2638 17.2732 14.8708 17.2732 13.1553C17.2732 11.4397 18.4679 10.0468 19.9612 10.0468C21.4688 10.0468 22.6635 11.4544 22.6493 13.1553C22.6493 14.8708 21.4688 16.2638 19.9612 16.2638Z" fill="#222222"/>
</svg>
