<svg width="400" height="121" viewBox="0 0 400 121" fill="none" xmlns="http://www.w3.org/2000/svg">
<path d="M4 74.5H41.2738C41.4227 74.5 41.5698 74.4667 41.7042 74.4026L73.4717 59.2526C73.798 59.097 74.1829 59.1296 74.4784 59.3378L104.357 80.3993C104.452 80.4659 104.534 80.5484 104.6 80.6432L121.599 104.926C121.84 105.271 122.27 105.428 122.676 105.319L157.156 96.0921C157.378 96.0325 157.574 95.8979 157.708 95.7111L179.392 65.6499C179.463 65.5508 179.552 65.4657 179.655 65.3987L209.625 45.746C209.863 45.5895 210.158 45.5424 210.433 45.6166L248.511 55.8683C248.818 55.9511 249.147 55.8825 249.396 55.6836L273.901 36.0793C273.967 36.0266 274.026 35.9659 274.076 35.8984L297.103 5.19571C297.531 4.62598 298.399 4.67282 298.763 5.28517L316.95 35.9164C316.983 35.972 317.011 36.0307 317.033 36.0916L327.429 65.3006C327.476 65.4321 327.55 65.5523 327.646 65.6535L345.823 84.8133C345.939 84.9358 346.084 85.0268 346.245 85.078L378.709 95.4073C378.898 95.4677 379.066 95.5836 379.19 95.7399L396 117" stroke="url(#paint0_linear_6425_6018)" stroke-width="8" stroke-linecap="round"/>
<defs>
<linearGradient id="paint0_linear_6425_6018" x1="283.902" y1="-30.3508" x2="-74.5473" y2="67.3938" gradientUnits="userSpaceOnUse">
<stop stop-color="#DBC9FF"/>
<stop offset="1" stop-color="#804EE1"/>
</linearGradient>
</defs>
</svg>
