<svg width="354" height="192" viewBox="0 0 354 192" fill="none" xmlns="http://www.w3.org/2000/svg">
<path d="M99.4648 113.426C99.4648 109.008 103.047 105.426 107.465 105.426H113.568C117.986 105.426 121.568 109.008 121.568 113.426V127.744H99.4648V113.426Z" fill="url(#paint0_linear_6425_5706)"/>
<path d="M66.3105 37.832C66.3105 33.4138 69.8923 29.832 74.3105 29.832H80.4138C84.8321 29.832 88.4138 33.4138 88.4138 37.832V127.745H66.3105V37.832Z" fill="url(#paint1_linear_6425_5706)"/>
<path d="M33.1553 68.0703C33.1553 63.652 36.737 60.0703 41.1553 60.0703H47.2586C51.6768 60.0703 55.2586 63.652 55.2586 68.0703V127.745H33.1553V68.0703Z" fill="url(#paint2_linear_6425_5706)"/>
<path d="M0 81.0273C0 76.6091 3.58172 73.0273 8 73.0273H14.1033C18.5216 73.0273 22.1033 76.6091 22.1033 81.0273V127.743H0V81.0273Z" fill="url(#paint3_linear_6425_5706)"/>
<path d="M350 127.746C352.209 127.746 354.013 125.953 353.876 123.748C352.905 108.165 346.288 93.4146 335.189 82.3102C323.145 70.26 306.809 63.4902 289.775 63.4902C272.742 63.4902 256.406 70.26 244.362 82.3102C233.263 93.4146 226.645 108.165 225.675 123.748C225.538 125.952 227.342 127.746 229.551 127.746H253.663C255.872 127.746 257.637 125.948 257.912 123.756C258.793 116.706 261.994 110.105 267.069 105.028C273.091 99.0028 281.259 95.6179 289.775 95.6179C298.292 95.6179 306.46 99.0028 312.482 105.028C317.557 110.105 320.758 116.706 321.639 123.756C321.913 125.948 323.679 127.746 325.888 127.746H350Z" fill="url(#paint4_linear_6425_5706)"/>
<g filter="url(#filter0_d_6425_5706)">
<path d="M289.441 128.369C287.129 127.417 307.763 81.1226 308.728 81.5204C309.694 81.9182 291.753 129.322 289.441 128.369Z" fill="url(#paint5_linear_6425_5706)"/>
</g>
<g filter="url(#filter1_b_6425_5706)">
<g opacity="0.7" filter="url(#filter2_b_6425_5706)">
<path d="M270.662 57.7646C270.662 129.589 172.031 167.523 172.031 167.523C172.031 167.523 73.4004 125.858 73.4004 57.7646C73.4004 3.3284 139.984 -26.8106 172.031 32.2666C200.967 -26.8105 270.662 3.3284 270.662 57.7646Z" fill="#757BBF"/>
<path d="M270.662 57.7646C270.662 129.589 172.031 167.523 172.031 167.523C172.031 167.523 73.4004 125.858 73.4004 57.7646C73.4004 3.3284 139.984 -26.8106 172.031 32.2666C200.967 -26.8105 270.662 3.3284 270.662 57.7646Z" fill="white" fill-opacity="0.1"/>
</g>
<path d="M79.1348 87.586L122.134 42.3217C122.607 41.8243 123.428 41.9395 123.746 42.5477L167.166 125.748C167.567 126.517 168.689 126.445 168.99 125.632L189.354 70.5869C189.631 69.84 190.627 69.7001 191.098 70.342L203.461 87.1779C203.65 87.4345 203.949 87.586 204.267 87.586H232.318C232.631 87.586 232.926 87.4392 233.115 87.1893L242.659 74.5723C243.077 74.0191 243.918 74.0495 244.295 74.6315L252.399 87.13C252.583 87.4144 252.899 87.586 253.238 87.586H264.927" stroke="#313671" stroke-width="9" stroke-linecap="round"/>
</g>
<defs>
<filter id="filter0_d_6425_5706" x="286.261" y="79.5178" width="25.5049" height="52.8655" filterUnits="userSpaceOnUse" color-interpolation-filters="sRGB">
<feFlood flood-opacity="0" result="BackgroundImageFix"/>
<feColorMatrix in="SourceAlpha" type="matrix" values="0 0 0 0 0 0 0 0 0 0 0 0 0 0 0 0 0 0 127 0" result="hardAlpha"/>
<feOffset dy="1"/>
<feGaussianBlur stdDeviation="1.5"/>
<feComposite in2="hardAlpha" operator="out"/>
<feColorMatrix type="matrix" values="0 0 0 0 0 0 0 0 0 0 0 0 0 0 0 0 0 0 0.2 0"/>
<feBlend mode="normal" in2="BackgroundImageFix" result="effect1_dropShadow_6425_5706"/>
<feBlend mode="normal" in="SourceGraphic" in2="effect1_dropShadow_6425_5706" result="shape"/>
</filter>
<filter id="filter1_b_6425_5706" x="49.4004" y="-24" width="245.262" height="215.523" filterUnits="userSpaceOnUse" color-interpolation-filters="sRGB">
<feFlood flood-opacity="0" result="BackgroundImageFix"/>
<feGaussianBlur in="BackgroundImageFix" stdDeviation="12"/>
<feComposite in2="SourceAlpha" operator="in" result="effect1_backgroundBlur_6425_5706"/>
<feBlend mode="normal" in="SourceGraphic" in2="effect1_backgroundBlur_6425_5706" result="shape"/>
</filter>
<filter id="filter2_b_6425_5706" x="49.4004" y="-24" width="245.262" height="215.523" filterUnits="userSpaceOnUse" color-interpolation-filters="sRGB">
<feFlood flood-opacity="0" result="BackgroundImageFix"/>
<feGaussianBlur in="BackgroundImageFix" stdDeviation="12"/>
<feComposite in2="SourceAlpha" operator="in" result="effect1_backgroundBlur_6425_5706"/>
<feBlend mode="normal" in="SourceGraphic" in2="effect1_backgroundBlur_6425_5706" result="shape"/>
</filter>
<linearGradient id="paint0_linear_6425_5706" x1="110.516" y1="105.426" x2="110.516" y2="127.744" gradientUnits="userSpaceOnUse">
<stop stop-color="white"/>
<stop offset="0.476067" stop-color="#FDFDFF"/>
<stop offset="1" stop-color="#D3D4F3"/>
</linearGradient>
<linearGradient id="paint1_linear_6425_5706" x1="77.3622" y1="29.832" x2="77.3622" y2="127.745" gradientUnits="userSpaceOnUse">
<stop stop-color="white"/>
<stop offset="0.476067" stop-color="#FDFDFF"/>
<stop offset="1" stop-color="#D3D4F3"/>
</linearGradient>
<linearGradient id="paint2_linear_6425_5706" x1="44.2069" y1="60.0703" x2="44.2069" y2="127.745" gradientUnits="userSpaceOnUse">
<stop stop-color="white"/>
<stop offset="0.476067" stop-color="#FDFDFF"/>
<stop offset="1" stop-color="#D3D4F3"/>
</linearGradient>
<linearGradient id="paint3_linear_6425_5706" x1="11.0516" y1="73.0273" x2="11.0516" y2="127.743" gradientUnits="userSpaceOnUse">
<stop stop-color="white"/>
<stop offset="0.476067" stop-color="#FDFDFF"/>
<stop offset="1" stop-color="#D3D4F3"/>
</linearGradient>
<linearGradient id="paint4_linear_6425_5706" x1="289.775" y1="63.4902" x2="288.46" y2="141.846" gradientUnits="userSpaceOnUse">
<stop stop-color="white"/>
<stop offset="1" stop-color="#D6D2F1"/>
</linearGradient>
<linearGradient id="paint5_linear_6425_5706" x1="308.728" y1="81.5204" x2="289.944" y2="104.305" gradientUnits="userSpaceOnUse">
<stop stop-color="white"/>
<stop offset="1" stop-color="#D6D2F1"/>
</linearGradient>
</defs>
</svg>
