<svg width="147" height="40" viewBox="0 0 147 40" fill="none" xmlns="http://www.w3.org/2000/svg">
<path d="M143.671 13.3181C143.61 13.2298 143.65 13.1009 143.759 13.0737C144.579 12.8361 145.256 12.4084 145.771 11.7906C146.401 11.037 146.726 10.0798 146.726 8.95286C146.726 8.08388 146.53 7.32353 146.15 6.6718C145.764 6.02007 145.222 5.5109 144.531 5.15109C143.847 4.79807 143.034 4.61477 142.126 4.61477H139.002C138.962 4.61477 138.921 4.62835 138.887 4.66229L137.078 6.47492C137.078 6.47492 137.03 6.54281 137.03 6.59033V18.0839C137.03 18.1721 137.098 18.24 137.186 18.24H138.487C138.575 18.24 138.643 18.1721 138.643 18.0839V13.4675C138.643 13.3792 138.711 13.3113 138.799 13.3113H141.59C141.645 13.3113 141.692 13.3385 141.719 13.3792L145.148 18.1857C145.175 18.2264 145.222 18.2536 145.276 18.2536H146.842C146.97 18.2536 147.045 18.111 146.97 18.0024L143.664 13.3317L143.671 13.3181ZM138.65 6.35272C138.65 6.26446 138.718 6.19658 138.806 6.19658H142.004C142.973 6.19658 143.738 6.44776 144.28 6.94335C144.822 7.43894 145.087 8.09746 145.087 8.96643C145.087 9.83541 144.822 10.5075 144.28 11.0099C143.738 11.5055 142.973 11.7567 142.004 11.7567H138.806C138.718 11.7567 138.65 11.6888 138.65 11.6005V6.35272Z" fill="#0C0066"/>
<path d="M57.5251 4.78673V6.03588C57.5251 6.12414 57.4574 6.19203 57.3693 6.19203H53.1548C53.0668 6.19203 52.999 6.25992 52.999 6.34817V18.0861C52.999 18.1744 52.9312 18.2423 52.8432 18.2423H51.5626C51.4745 18.2423 51.4067 18.1744 51.4067 18.0861V6.34817C51.4067 6.25992 51.339 6.19203 51.2509 6.19203H47.05C46.9619 6.19203 46.8941 6.12414 46.8941 6.03588V4.78673C46.8941 4.69848 46.9619 4.63059 47.05 4.63059H57.3829C57.4709 4.63059 57.5387 4.69848 57.5387 4.78673H57.5251Z" fill="#0C0066"/>
<path d="M71.1303 7.7803C70.5409 6.71445 69.7075 5.87263 68.6504 5.27521C67.5934 4.68458 66.3738 4.37908 65.0119 4.37908C63.65 4.37908 62.4507 4.67779 61.3937 5.27521C60.3367 5.87263 59.4965 6.71445 58.9071 7.7803C58.3176 8.84615 58.0127 10.0749 58.0127 11.4395C58.0127 12.8041 58.3108 14.0328 58.9071 15.0919C59.5033 16.1578 60.3367 16.9996 61.3937 17.597C62.4507 18.1876 63.6636 18.4931 65.0119 18.4931C66.3603 18.4931 67.5934 18.1944 68.6504 17.597C69.7075 16.9996 70.5409 16.1578 71.1303 15.0919C71.713 14.0261 72.0112 12.7973 72.0112 11.4395C72.0112 10.0817 71.713 8.84615 71.1303 7.78709V7.7803ZM65.0119 16.8638C63.9617 16.8638 63.0199 16.633 62.2136 16.1781C61.8138 15.9541 61.4547 15.6825 61.143 15.3567C60.8313 15.0376 60.5603 14.671 60.3299 14.2637C59.876 13.4422 59.6456 12.485 59.6456 11.4327C59.6456 10.3804 59.876 9.40963 60.3299 8.59496C60.7771 7.7803 61.414 7.13536 62.2136 6.68729C63.0199 6.23244 63.9549 6.00162 65.0119 6.00162C66.0689 6.00162 67.0107 6.23244 67.817 6.68729C68.6233 7.13536 69.2603 7.7803 69.7074 8.59496C70.1614 9.40963 70.3918 10.3669 70.3918 11.4327C70.3918 12.4986 70.1614 13.4558 69.7074 14.2705C69.2603 15.0851 68.6166 15.7233 67.817 16.1781C67.004 16.633 66.0621 16.8638 65.0119 16.8638Z" fill="#0C0066"/>
<path d="M87.6558 11.094C87.7642 15.1605 84.9591 18.5481 80.8056 18.487C79.4979 18.487 78.3054 18.1815 77.2687 17.5841C73.9351 15.7308 73.061 11.0397 74.8092 7.80137C77.2281 3.19852 84.4306 3.27999 86.8156 7.81495C86.8495 7.87605 86.8359 7.95073 86.7885 8.00504L85.806 8.98942C85.7247 9.07089 85.596 9.04374 85.5486 8.9419C85.1556 8.04577 84.5525 7.31258 83.7462 6.80341C82.2149 5.77829 79.6808 5.74435 78.0886 6.688C75.5274 8.07293 74.9311 11.8204 76.2388 14.2712C77.1535 15.982 78.8678 16.8781 80.8259 16.8645C83.4278 16.912 85.5553 15.1469 85.9212 12.6011C85.9348 12.5061 85.8602 12.4246 85.7654 12.4246H80.3178C80.2297 12.4246 80.1619 12.3567 80.1619 12.2684V11.0193C80.1619 10.931 80.2297 10.8632 80.3178 10.8632H87.5C87.588 10.8632 87.6558 10.931 87.6558 11.0193V11.1008V11.094Z" fill="#0C0066"/>
<path d="M98.4658 18.0861C98.4658 18.1744 98.398 18.2423 98.3099 18.2423H90.2266C90.1385 18.2423 90.0707 18.1744 90.0707 18.0861V4.78673C90.0707 4.69848 90.1385 4.63059 90.2266 4.63059H98.1067C98.1947 4.63059 98.2625 4.69848 98.2625 4.78673V6.01552C98.2625 6.10377 98.1947 6.17166 98.1067 6.17166H91.8459C91.7579 6.17166 91.6901 6.23955 91.6901 6.3278V10.374C91.6901 10.4622 91.7579 10.5301 91.8459 10.5301H97.6188C97.7069 10.5301 97.7746 10.598 97.7746 10.6863V11.8947C97.7746 11.9829 97.7069 12.0508 97.6188 12.0508H91.8459C91.7579 12.0508 91.6901 12.1187 91.6901 12.207V16.5179C91.6901 16.6061 91.7579 16.674 91.8459 16.674H98.3099C98.398 16.674 98.4658 16.7419 98.4658 16.8302V18.0861Z" fill="#0C0066"/>
<path d="M110.341 4.78673V6.03588C110.341 6.12414 110.273 6.19203 110.185 6.19203H105.971C105.883 6.19203 105.815 6.25992 105.815 6.34817V18.0861C105.815 18.1744 105.747 18.2423 105.659 18.2423H104.378C104.29 18.2423 104.222 18.1744 104.222 18.0861V6.34817C104.222 6.25992 104.155 6.19203 104.067 6.19203H99.8657C99.7776 6.19203 99.7099 6.12414 99.7099 6.03588V4.78673C99.7099 4.69848 99.7776 4.63059 99.8657 4.63059H110.199C110.287 4.63059 110.354 4.69848 110.354 4.78673H110.341Z" fill="#0C0066"/>
<path d="M122.821 4.78673V18.0861C122.821 18.1744 122.753 18.2423 122.665 18.2423H121.364C121.276 18.2423 121.208 18.1744 121.208 18.0861V12.2477C121.208 12.1594 121.14 12.0916 121.052 12.0916H114.161C114.073 12.0916 114.006 12.1594 114.006 12.2477V18.0861C114.006 18.1744 113.938 18.2423 113.85 18.2423H112.549C112.461 18.2423 112.393 18.1744 112.393 18.0861V4.78673C112.393 4.69848 112.461 4.63059 112.549 4.63059H113.85C113.938 4.63059 114.006 4.69848 114.006 4.78673V10.3604C114.006 10.4486 114.073 10.5165 114.161 10.5165H121.208V4.78673C121.208 4.69848 121.276 4.63059 121.364 4.63059H122.665C122.753 4.63059 122.821 4.69848 122.821 4.78673Z" fill="#0C0066"/>
<path d="M134.394 18.0861C134.394 18.1744 134.326 18.2423 134.238 18.2423H126.155C126.067 18.2423 125.999 18.1744 125.999 18.0861V4.78673C125.999 4.69848 126.067 4.63059 126.155 4.63059H134.035C134.123 4.63059 134.191 4.69848 134.191 4.78673V6.01552C134.191 6.10377 134.123 6.17166 134.035 6.17166H127.774C127.686 6.17166 127.618 6.23955 127.618 6.3278V10.374C127.618 10.4622 127.686 10.5301 127.774 10.5301H133.547C133.635 10.5301 133.703 10.598 133.703 10.6863V11.8947C133.703 11.9829 133.635 12.0508 133.547 12.0508H127.774C127.686 12.0508 127.618 12.1187 127.618 12.207V16.5179C127.618 16.6061 127.686 16.674 127.774 16.674H134.238C134.326 16.674 134.394 16.7419 134.394 16.8302V18.0861Z" fill="#0C0066"/>
<path d="M60.7917 33.1898C60.8934 33.1898 60.9747 33.2848 60.9476 33.3867C59.816 37.7247 54.7411 39.5102 50.8993 37.5211C46.2647 35.1382 46.1699 27.6501 50.7096 25.1178C53.9822 23.2237 58.7252 24.3507 60.392 27.8605C60.4191 27.9216 60.4055 27.9963 60.3581 28.0438L59.3824 29.0214C59.3011 29.1029 59.1656 29.0757 59.1249 28.9671C58.034 25.9936 54.2058 25.0431 51.543 26.5231C48.1484 28.3629 48.1551 34.1809 51.543 36.0207C54.3142 37.555 58.3051 36.4756 59.274 33.3052C59.2943 33.2373 59.3553 33.1898 59.423 33.1898H60.7917Z" fill="#0C0066"/>
<path d="M83.7724 37.922C83.7724 38.0102 83.7047 38.0781 83.6166 38.0781H75.5332C75.4452 38.0781 75.3774 38.0102 75.3774 37.922V24.6226C75.3774 24.5343 75.4452 24.4664 75.5332 24.4664H83.4133C83.5014 24.4664 83.5692 24.5343 83.5692 24.6226V25.8513C83.5692 25.9396 83.5014 26.0075 83.4133 26.0075H77.1526C77.0645 26.0075 76.9968 26.0754 76.9968 26.1636V30.2098C76.9968 30.2981 77.0645 30.3659 77.1526 30.3659H82.9255C83.0136 30.3659 83.0813 30.4338 83.0813 30.5221V31.7305C83.0813 31.8188 83.0136 31.8867 82.9255 31.8867H77.1526C77.0645 31.8867 76.9968 31.9545 76.9968 32.0428V36.3537C76.9968 36.442 77.0645 36.5099 77.1526 36.5099H83.6166C83.7047 36.5099 83.7724 36.5778 83.7724 36.666V37.922Z" fill="#0C0066"/>
<path d="M104.743 24.6707L100.38 37.97C100.36 38.0379 100.299 38.0787 100.231 38.0787H99.0519C98.9841 38.0787 98.9232 38.0379 98.9028 37.9768L95.061 27.522C95.0068 27.3862 94.8171 27.3862 94.7629 27.522L90.9347 37.9768C90.9143 38.0379 90.8534 38.0787 90.7856 38.0787H89.5863C89.5185 38.0787 89.4576 38.0311 89.4372 37.97L85.094 24.6707C85.0602 24.5688 85.1347 24.4602 85.2431 24.4602H86.6118C86.6796 24.4602 86.7405 24.5077 86.7609 24.5688L88.7258 30.6109L90.0945 34.8811C90.1419 35.0237 90.3452 35.0305 90.3926 34.8811L91.9646 30.5973L94.1531 24.5552C94.1734 24.4941 94.2344 24.4534 94.3022 24.4534H95.5014C95.5692 24.4534 95.6302 24.4941 95.6505 24.5552L99.4313 34.9015C99.4855 35.044 99.682 35.0372 99.7295 34.9015L101.118 30.6109L103.063 24.5688C103.083 24.5009 103.144 24.4602 103.212 24.4602H104.581C104.689 24.4602 104.764 24.5688 104.73 24.6707H104.743Z" fill="#0C0066"/>
<path d="M69.946 33.1631C69.885 33.0749 69.9256 32.9459 70.034 32.9187C70.8539 32.6811 71.5315 32.2534 72.0464 31.6356C72.6833 30.8821 73.0018 29.9316 73.0018 28.7979C73.0018 27.9357 72.8121 27.1685 72.4258 26.5168C72.0396 25.8651 71.4976 25.3559 70.8065 24.9961C70.1221 24.6431 69.3091 24.4598 68.4011 24.4598H65.2775C65.2369 24.4598 65.1962 24.4734 65.1624 24.5005L63.3465 26.3131C63.3465 26.3131 63.299 26.381 63.299 26.4286L63.2855 37.9153C63.2855 38.0036 63.3533 38.0715 63.4413 38.0715H64.7423C64.8303 38.0715 64.8981 38.0036 64.8981 37.9153V33.2989C64.8981 33.2106 64.9726 33.1427 65.0607 33.1427H67.8523C67.9065 33.1427 67.9539 33.1699 67.981 33.2106L71.4027 38.0172C71.4298 38.0579 71.4773 38.085 71.5315 38.085H73.0966C73.2254 38.085 73.2999 37.9425 73.2254 37.8339L69.9256 33.1631H69.946ZM64.9252 31.4184V26.1842C64.9252 26.0959 64.9997 26.028 65.0878 26.028H68.2859C69.2548 26.028 70.0205 26.2792 70.5625 26.7816C71.1046 27.2772 71.3621 27.9357 71.3621 28.8047C71.3621 29.6736 71.0978 30.3457 70.5558 30.8413C70.0137 31.3369 69.2548 31.5881 68.2792 31.5813H65.081C64.993 31.5813 64.9252 31.5066 64.9252 31.4184Z" fill="#0C0066"/>
<path d="M37.2119 40H2.71026C1.21284 40 0 38.7848 0 37.2845V2.71555C0 1.21521 1.21284 0 2.71026 0H37.2119C38.7093 0 39.9222 1.21521 39.9222 2.71555V37.2845C39.9222 38.7848 38.7093 40 37.2119 40Z" fill="#804EE1"/>
<path d="M20.4705 18.466C18.8714 18.0383 17.2317 18.9888 16.8048 20.5842C15.9308 24.4674 21.4055 25.9338 22.5845 22.1388C23.0113 20.5366 22.0627 18.8937 20.4705 18.466Z" fill="white"/>
<path d="M20.7917 17.262C21.0492 17.3367 21.3338 17.1806 21.4015 16.909L22.6279 12.3129C22.6957 12.0685 22.8989 11.8852 23.1496 11.8377C24.0644 11.6612 24.7555 10.8465 24.7555 9.87574C24.6538 7.22808 20.873 7.22808 20.7646 9.87574C20.7646 10.4732 21.0289 11.0095 21.4422 11.3761C21.6387 11.5458 21.7268 11.8106 21.659 12.0618L20.4326 16.651C20.3581 16.9158 20.5207 17.1941 20.7849 17.262H20.7917Z" fill="white"/>
<path d="M16.7006 17.6575L13.8548 14.8062C13.6583 14.6093 13.6041 14.3106 13.7193 14.0594C14.8983 11.4864 11.6528 8.96095 9.42356 11.0791C8.28525 12.1857 8.44109 14.1001 9.64038 15.0506C9.85043 15.2203 9.93851 15.4986 9.86398 15.7566L8.27847 21.6765C8.21072 21.9209 8.00745 22.111 7.76352 22.1585C6.49647 22.4165 5.61564 23.7539 5.98152 25.0506C6.73362 27.5896 10.2095 27.1619 10.528 24.7722C10.5619 24.5075 10.7584 24.2902 11.0158 24.2155L15.2438 23.0818C15.5081 23.0071 15.6707 22.7356 15.5962 22.4708C15.5217 22.206 15.2506 22.0431 14.9864 22.1178L11.0158 23.1836C10.6229 23.2922 10.2095 23.1565 9.93173 22.8578C9.92496 22.8442 9.91141 22.8374 9.90463 22.8238C9.64038 22.5523 9.53197 22.1585 9.63361 21.7851L11.0429 16.517C11.1717 16.035 11.5443 15.6616 12.0254 15.5258C12.039 15.5258 12.0525 15.519 12.0661 15.5122C12.5675 15.3629 13.1163 15.4851 13.489 15.8584L15.9959 18.3703C16.0908 18.4654 16.2195 18.5197 16.3483 18.5197C16.7819 18.5265 17.0191 17.9766 16.7006 17.6643V17.6575Z" fill="white"/>
<path d="M33.72 17.5972C32.7986 14.4946 28.3402 15.2822 28.5028 18.4797L24.1393 19.6542C23.875 19.7289 23.7124 20.0004 23.7869 20.2652C23.8547 20.5367 24.1393 20.6929 24.3967 20.6182L27.8184 19.7017C28.3266 19.5659 28.8619 19.7356 29.221 20.1158C29.2346 20.1294 29.2413 20.1362 29.2549 20.1498C29.6004 20.5096 29.7427 21.0187 29.614 21.5008L28.225 26.6874C28.1166 27.1016 27.7981 27.4206 27.3848 27.5496C27.3848 27.5496 27.378 27.5496 27.3713 27.5496C26.9376 27.6854 26.4701 27.5632 26.1516 27.2373L23.3397 24.42C23.1771 24.257 22.9129 24.257 22.7503 24.42C22.5876 24.5829 22.5876 24.8477 22.7503 25.0106L26.172 28.439C24.6271 30.7947 27.6626 33.3677 29.7292 31.4125C30.6913 30.4756 30.6032 28.8735 29.6275 28.0181C29.4378 27.8483 29.3497 27.5904 29.4175 27.3392L31.003 21.4193C31.0708 21.1613 31.2876 20.9576 31.5518 20.9169C33.0628 20.6929 34.1537 19.1179 33.72 17.5904V17.5972Z" fill="white"/>
</svg>
