<svg width="36" height="26" viewBox="0 0 36 26" fill="none" xmlns="http://www.w3.org/2000/svg">
<path d="M7.94834 26C5.88716 26.0003 3.90844 25.2186 2.43884 23.8235C0.969242 22.4284 0.126506 20.5317 0.0923494 18.5423C-0.109662 16.6682 -0.0804835 13.9035 1.23259 10.712C2.57484 7.449 5.19201 3.89134 9.96845 0.433339C10.2043 0.262621 10.4726 0.138407 10.7581 0.0677913C11.0437 -0.00282451 11.3408 -0.018461 11.6326 0.0217783C12.2219 0.103043 12.7537 0.40696 13.1108 0.866669C13.468 1.32638 13.6214 1.90422 13.5372 2.47308C13.453 3.04194 13.1382 3.55522 12.6619 3.9C9.15143 6.4415 7.1403 8.9115 5.98883 11.0717C7.06838 10.8041 8.19457 10.7613 9.29258 10.9461C10.3906 11.1309 11.4353 11.5392 12.3573 12.1438C13.2792 12.7483 14.0574 13.5353 14.64 14.4525C15.2227 15.3697 15.5965 16.3961 15.7366 17.4634C15.8767 18.5308 15.7799 19.6147 15.4526 20.6432C15.1254 21.6717 14.5752 22.6212 13.8385 23.4286C13.1019 24.236 12.1957 24.8829 11.1801 25.3262C10.1646 25.7696 9.06292 25.9993 7.94834 26ZM28.1495 26C26.0883 26.0003 24.1096 25.2186 22.64 23.8235C21.1704 22.4284 20.3276 20.5317 20.2935 18.5423C20.0915 16.6682 20.1206 13.9035 21.4337 10.712C22.7737 7.449 25.3931 3.89134 30.1696 0.433337C30.4054 0.26262 30.6737 0.138405 30.9593 0.0677895C31.2448 -0.00282627 31.5419 -0.0184627 31.8337 0.0217766C32.4231 0.103041 32.9548 0.406958 33.312 0.866667C33.6691 1.32638 33.8225 1.90422 33.7383 2.47308C33.6541 3.04194 33.3393 3.55522 32.8631 3.9C29.3525 6.4415 27.3414 8.9115 26.19 11.0717C27.2695 10.8041 28.3957 10.7612 29.4937 10.9461C30.5917 11.1309 31.6364 11.5392 32.5584 12.1438C33.4804 12.7483 34.2585 13.5353 34.8412 14.4525C35.4238 15.3697 35.7976 16.3961 35.9377 17.4634C36.0778 18.5308 35.981 19.6147 35.6538 20.6432C35.3265 21.6717 34.7763 22.6212 34.0396 23.4286C33.303 24.236 32.3968 24.8829 31.3812 25.3262C30.3657 25.7696 29.264 25.9993 28.1495 26Z" fill="#222222"/>
</svg>
