<svg width="36" height="26" viewBox="0 0 36 26" fill="none" xmlns="http://www.w3.org/2000/svg">
<path d="M28.0517 7.15933e-08C30.1128 -0.000273137 32.0916 0.781409 33.5612 2.17649C35.0308 3.57158 35.8735 5.4683 35.9077 7.45767C36.1097 9.33183 36.0805 12.0965 34.7674 15.288C33.4252 18.551 30.808 22.1087 26.0316 25.5667C25.7957 25.7374 25.5274 25.8616 25.2419 25.9322C24.9563 26.0028 24.6592 26.0185 24.3674 25.9782C23.7781 25.897 23.2463 25.593 22.8892 25.1333C22.532 24.6736 22.3786 24.0958 22.4628 23.5269C22.547 22.9581 22.8618 22.4448 23.3381 22.1C26.8486 19.5585 28.8597 17.0885 30.0112 14.9283C28.9316 15.1959 27.8054 15.2388 26.7074 15.0539C25.6094 14.8691 24.5647 14.4608 23.6427 13.8562C22.7208 13.2517 21.9426 12.4647 21.36 11.5475C20.7773 10.6303 20.4035 9.60392 20.2634 8.53656C20.1233 7.4692 20.2201 6.38527 20.5474 5.3568C20.8746 4.32832 21.4248 3.37883 22.1615 2.57141C22.8981 1.76399 23.8043 1.11712 24.8199 0.673771C25.8354 0.230423 26.9371 0.00074667 28.0517 7.15933e-08ZM7.85054 7.15933e-08C9.91172 -0.000273137 11.8904 0.781409 13.36 2.17649C14.8296 3.57158 15.6724 5.4683 15.7065 7.45767C15.9085 9.33183 15.8794 12.0965 14.5663 15.288C13.2263 18.551 10.6069 22.1087 5.83043 25.5667C5.59462 25.7374 5.32629 25.8616 5.04075 25.9322C4.75521 26.0028 4.45806 26.0185 4.16626 25.9782C3.57694 25.897 3.04521 25.593 2.68803 25.1333C2.33085 24.6736 2.17749 24.0958 2.26168 23.5269C2.34586 22.9581 2.66071 22.4448 3.13695 22.1C6.64745 19.5585 8.65859 17.0885 9.81005 14.9283C8.7305 15.1959 7.60431 15.2388 6.5063 15.0539C5.40829 14.8691 4.3636 14.4608 3.44162 13.8562C2.51964 13.2517 1.74149 12.4647 1.15884 11.5475C0.576203 10.6303 0.202416 9.60392 0.0623125 8.53656C-0.0777907 7.4692 0.0189975 6.38527 0.346249 5.3568C0.6735 4.32832 1.22372 3.37883 1.96036 2.57141C2.697 1.76399 3.6032 1.11712 4.61875 0.673771C5.6343 0.230423 6.73596 0.00074667 7.85054 7.15933e-08Z" fill="#222222"/>
</svg>
