<svg width="280" height="280" viewBox="0 0 280 280" fill="none" xmlns="http://www.w3.org/2000/svg">
<circle cx="139.999" cy="139.999" r="139.999" fill="#917FB0"/>
<circle cx="139.999" cy="159.443" r="120.555" fill="white"/>
<circle cx="139.999" cy="176.888" r="101.11" fill="#9897BA"/>
<circle cx="139.999" cy="196.334" r="81.666" fill="white"/>
<circle cx="139.999" cy="219.26" r="55.7403" fill="#807FB3"/>
<path d="M105.171 28.0723V17.8904H112.032V19.6653H107.324V22.0914H111.679V23.8663H107.324V26.2974H112.052V28.0723H105.171ZM117.154 28.2214C116.372 28.2214 115.699 28.0557 115.136 27.7243C114.576 27.3895 114.145 26.9255 113.843 26.3322C113.545 25.7389 113.396 25.0562 113.396 24.2839C113.396 23.5017 113.546 22.8156 113.848 22.2257C114.153 21.6324 114.585 21.17 115.146 20.8386C115.706 20.5038 116.372 20.3365 117.144 20.3365C117.81 20.3365 118.394 20.4574 118.894 20.6994C119.395 20.9413 119.791 21.2811 120.082 21.7186C120.374 22.1561 120.535 22.6698 120.565 23.2598H118.566C118.51 22.8786 118.361 22.572 118.119 22.34C117.88 22.1047 117.567 21.987 117.179 21.987C116.851 21.987 116.564 22.0765 116.319 22.2555C116.077 22.4312 115.888 22.688 115.752 23.0261C115.616 23.3642 115.548 23.7735 115.548 24.2541C115.548 24.7413 115.615 25.1556 115.747 25.497C115.883 25.8384 116.074 26.0985 116.319 26.2775C116.564 26.4565 116.851 26.546 117.179 26.546C117.421 26.546 117.638 26.4963 117.83 26.3968C118.026 26.2974 118.187 26.1532 118.313 25.9643C118.442 25.7721 118.526 25.5417 118.566 25.2733H120.565C120.532 25.8566 120.372 26.3703 120.087 26.8145C119.806 27.2553 119.416 27.6 118.919 27.8485C118.422 28.0971 117.834 28.2214 117.154 28.2214ZM125.371 28.2214C124.599 28.2214 123.931 28.0574 123.367 27.7292C122.807 27.3978 122.375 26.9371 122.07 26.3471C121.765 25.7538 121.612 25.0661 121.612 24.2839C121.612 23.4951 121.765 22.8057 122.07 22.2157C122.375 21.6225 122.807 21.1618 123.367 20.8336C123.931 20.5022 124.599 20.3365 125.371 20.3365C126.143 20.3365 126.809 20.5022 127.37 20.8336C127.933 21.1618 128.367 21.6225 128.672 22.2157C128.977 22.8057 129.129 23.4951 129.129 24.2839C129.129 25.0661 128.977 25.7538 128.672 26.3471C128.367 26.9371 127.933 27.3978 127.37 27.7292C126.809 28.0574 126.143 28.2214 125.371 28.2214ZM125.381 26.5808C125.732 26.5808 126.026 26.4814 126.261 26.2825C126.496 26.0803 126.674 25.8052 126.793 25.4572C126.915 25.1092 126.977 24.7131 126.977 24.269C126.977 23.8249 126.915 23.4288 126.793 23.0808C126.674 22.7328 126.496 22.4577 126.261 22.2555C126.026 22.0533 125.732 21.9522 125.381 21.9522C125.026 21.9522 124.728 22.0533 124.486 22.2555C124.247 22.4577 124.067 22.7328 123.944 23.0808C123.825 23.4288 123.765 23.8249 123.765 24.269C123.765 24.7131 123.825 25.1092 123.944 25.4572C124.067 25.8052 124.247 26.0803 124.486 26.2825C124.728 26.4814 125.026 26.5808 125.381 26.5808ZM136.86 22.6135L134.921 22.7328C134.888 22.5671 134.817 22.4179 134.708 22.2853C134.598 22.1494 134.454 22.0417 134.275 21.9622C134.099 21.8793 133.889 21.8379 133.644 21.8379C133.316 21.8379 133.039 21.9075 132.813 22.0467C132.588 22.1826 132.475 22.3649 132.475 22.5936C132.475 22.7759 132.548 22.93 132.694 23.0559C132.84 23.1819 133.09 23.283 133.445 23.3592L134.827 23.6376C135.569 23.7901 136.123 24.0353 136.487 24.3734C136.852 24.7115 137.034 25.1556 137.034 25.7058C137.034 26.2063 136.887 26.6454 136.592 27.0233C136.3 27.4011 135.899 27.6961 135.389 27.9082C134.882 28.117 134.297 28.2214 133.634 28.2214C132.623 28.2214 131.817 28.0109 131.218 27.59C130.621 27.1658 130.271 26.5891 130.169 25.8599L132.252 25.7505C132.315 26.0588 132.467 26.2941 132.709 26.4565C132.951 26.6156 133.261 26.6951 133.639 26.6951C134.01 26.6951 134.308 26.6239 134.534 26.4814C134.762 26.3355 134.878 26.1483 134.882 25.9196C134.878 25.7273 134.797 25.5699 134.638 25.4473C134.479 25.3213 134.234 25.2252 133.902 25.1589L132.58 24.8954C131.834 24.7463 131.279 24.4877 130.914 24.1199C130.553 23.752 130.372 23.283 130.372 22.7129C130.372 22.2224 130.505 21.7998 130.77 21.4451C131.039 21.0905 131.415 20.8171 131.899 20.6248C132.386 20.4326 132.956 20.3365 133.609 20.3365C134.573 20.3365 135.332 20.5403 135.886 20.948C136.443 21.3556 136.767 21.9108 136.86 22.6135ZM139.675 30.9359C139.407 30.9359 139.155 30.9144 138.92 30.8713C138.688 30.8315 138.496 30.7801 138.343 30.7172L138.82 29.1362C139.069 29.2124 139.293 29.2538 139.492 29.2605C139.694 29.2671 139.868 29.2207 140.014 29.1213C140.163 29.0218 140.284 28.8528 140.376 28.6142L140.501 28.291L137.761 20.4359H139.989L141.57 26.0439H141.649L143.245 20.4359H145.487L142.519 28.8975C142.377 29.3085 142.183 29.6665 141.938 29.9714C141.696 30.2797 141.389 30.5166 141.018 30.6824C140.647 30.8514 140.199 30.9359 139.675 30.9359ZM152.925 22.6135L150.986 22.7328C150.953 22.5671 150.881 22.4179 150.772 22.2853C150.663 22.1494 150.518 22.0417 150.34 21.9622C150.164 21.8793 149.953 21.8379 149.708 21.8379C149.38 21.8379 149.103 21.9075 148.878 22.0467C148.652 22.1826 148.54 22.3649 148.54 22.5936C148.54 22.7759 148.613 22.93 148.759 23.0559C148.904 23.1819 149.155 23.283 149.509 23.3592L150.891 23.6376C151.634 23.7901 152.187 24.0353 152.552 24.3734C152.916 24.7115 153.099 25.1556 153.099 25.7058C153.099 26.2063 152.951 26.6454 152.656 27.0233C152.365 27.4011 151.964 27.6961 151.453 27.9082C150.946 28.117 150.361 28.2214 149.698 28.2214C148.687 28.2214 147.882 28.0109 147.282 27.59C146.685 27.1658 146.336 26.5891 146.233 25.8599L148.316 25.7505C148.379 26.0588 148.532 26.2941 148.773 26.4565C149.015 26.6156 149.325 26.6951 149.703 26.6951C150.074 26.6951 150.373 26.6239 150.598 26.4814C150.827 26.3355 150.943 26.1483 150.946 25.9196C150.943 25.7273 150.862 25.5699 150.702 25.4473C150.543 25.3213 150.298 25.2252 149.967 25.1589L148.644 24.8954C147.898 24.7463 147.343 24.4877 146.979 24.1199C146.617 23.752 146.437 23.283 146.437 22.7129C146.437 22.2224 146.569 21.7998 146.835 21.4451C147.103 21.0905 147.479 20.8171 147.963 20.6248C148.45 20.4326 149.02 20.3365 149.673 20.3365C150.638 20.3365 151.397 20.5403 151.95 20.948C152.507 21.3556 152.832 21.9108 152.925 22.6135ZM158.494 20.4359V22.0268H153.895V20.4359H158.494ZM154.939 18.6064H157.057V25.7257C157.057 25.9212 157.087 26.0737 157.147 26.1831C157.207 26.2891 157.289 26.3637 157.395 26.4068C157.505 26.4499 157.631 26.4714 157.773 26.4714C157.873 26.4714 157.972 26.4631 158.072 26.4466C158.171 26.4267 158.247 26.4118 158.3 26.4018L158.633 27.9778C158.527 28.0109 158.378 28.0491 158.186 28.0922C157.994 28.1386 157.76 28.1667 157.485 28.1767C156.975 28.1966 156.527 28.1286 156.143 27.9728C155.761 27.8171 155.465 27.5751 155.253 27.247C155.041 26.9189 154.936 26.5046 154.939 26.0041V18.6064ZM163.272 28.2214C162.486 28.2214 161.81 28.0623 161.243 27.7441C160.68 27.4226 160.246 26.9686 159.941 26.3819C159.636 25.792 159.484 25.0943 159.484 24.2889C159.484 23.5034 159.636 22.814 159.941 22.2207C160.246 21.6274 160.675 21.1651 161.229 20.8336C161.785 20.5022 162.438 20.3365 163.187 20.3365C163.691 20.3365 164.16 20.4177 164.594 20.5801C165.032 20.7392 165.413 20.9795 165.738 21.301C166.066 21.6225 166.321 22.0268 166.503 22.514C166.686 22.9979 166.777 23.5647 166.777 24.2143V24.796H160.329V23.4835H164.783C164.783 23.1786 164.717 22.9084 164.584 22.6731C164.452 22.4378 164.268 22.2538 164.033 22.1213C163.801 21.9854 163.53 21.9174 163.222 21.9174C162.901 21.9174 162.616 21.992 162.367 22.1412C162.122 22.287 161.93 22.4842 161.79 22.7328C161.651 22.978 161.58 23.2515 161.577 23.5531V24.801C161.577 25.1788 161.646 25.5053 161.785 25.7804C161.928 26.0555 162.128 26.2676 162.387 26.4167C162.645 26.5659 162.952 26.6404 163.307 26.6404C163.542 26.6404 163.757 26.6073 163.953 26.541C164.149 26.4747 164.316 26.3753 164.455 26.2427C164.594 26.1101 164.7 25.9477 164.773 25.7555L166.732 25.8848C166.633 26.3554 166.429 26.7664 166.121 27.1177C165.816 27.4657 165.421 27.7375 164.937 27.9331C164.457 28.1253 163.902 28.2214 163.272 28.2214ZM168.159 28.0723V20.4359H170.177V21.7832H170.267C170.426 21.3358 170.691 20.9828 171.062 20.7243C171.434 20.4657 171.878 20.3365 172.395 20.3365C172.918 20.3365 173.364 20.4674 173.732 20.7292C174.1 20.9877 174.345 21.3391 174.468 21.7832H174.547C174.703 21.3457 174.985 20.996 175.393 20.7342C175.804 20.469 176.289 20.3365 176.849 20.3365C177.562 20.3365 178.14 20.5635 178.584 21.0176C179.032 21.4683 179.256 22.108 179.256 22.9366V28.0723H177.143V23.3542C177.143 22.93 177.03 22.6118 176.805 22.3997C176.579 22.1876 176.297 22.0815 175.959 22.0815C175.575 22.0815 175.275 22.2041 175.06 22.4494C174.844 22.6913 174.736 23.0112 174.736 23.4089V28.0723H172.683V23.3095C172.683 22.935 172.575 22.6367 172.36 22.4146C172.148 22.1925 171.868 22.0815 171.52 22.0815C171.284 22.0815 171.072 22.1412 170.883 22.2605C170.698 22.3765 170.55 22.5405 170.441 22.7527C170.332 22.9615 170.277 23.2067 170.277 23.4885V28.0723H168.159Z" fill="white"/>
<path d="M112.233 58.3438H110.056C110.016 58.062 109.935 57.8118 109.812 57.593C109.689 57.371 109.532 57.1821 109.34 57.0263C109.148 56.8705 108.925 56.7512 108.674 56.6683C108.425 56.5855 108.155 56.544 107.863 56.544C107.336 56.544 106.877 56.675 106.486 56.9368C106.095 57.1953 105.792 57.5732 105.576 58.0703C105.361 58.5642 105.253 59.1641 105.253 59.87C105.253 60.5959 105.361 61.2057 105.576 61.6996C105.795 62.1934 106.1 62.5663 106.491 62.8182C106.882 63.0701 107.335 63.196 107.848 63.196C108.137 63.196 108.403 63.1579 108.649 63.0817C108.897 63.0054 109.118 62.8944 109.31 62.7486C109.502 62.5994 109.661 62.4188 109.787 62.2067C109.916 61.9946 110.006 61.7526 110.056 61.4808L112.233 61.4908C112.177 61.9581 112.036 62.4089 111.811 62.843C111.589 63.2739 111.289 63.66 110.911 64.0014C110.536 64.3395 110.089 64.608 109.568 64.8068C109.051 65.0024 108.466 65.1001 107.814 65.1001C106.905 65.1001 106.093 64.8946 105.377 64.4837C104.665 64.0727 104.101 63.4777 103.687 62.6989C103.276 61.92 103.071 60.977 103.071 59.87C103.071 58.7597 103.279 57.8151 103.697 57.0362C104.115 56.2573 104.681 55.6641 105.397 55.2564C106.113 54.8454 106.919 54.6399 107.814 54.6399C108.403 54.6399 108.95 54.7228 109.454 54.8885C109.961 55.0542 110.41 55.2962 110.801 55.6143C111.193 55.9292 111.511 56.3153 111.756 56.7727C112.005 57.2301 112.164 57.7538 112.233 58.3438ZM117.187 65.1101C116.415 65.1101 115.747 64.946 115.184 64.6179C114.624 64.2865 114.191 63.8258 113.886 63.2358C113.581 62.6425 113.429 61.9548 113.429 61.1726C113.429 60.3838 113.581 59.6944 113.886 59.1044C114.191 58.5111 114.624 58.0504 115.184 57.7223C115.747 57.3909 116.415 57.2251 117.187 57.2251C117.96 57.2251 118.626 57.3909 119.186 57.7223C119.749 58.0504 120.184 58.5111 120.489 59.1044C120.794 59.6944 120.946 60.3838 120.946 61.1726C120.946 61.9548 120.794 62.6425 120.489 63.2358C120.184 63.8258 119.749 64.2865 119.186 64.6179C118.626 64.946 117.96 65.1101 117.187 65.1101ZM117.197 63.4695C117.549 63.4695 117.842 63.37 118.077 63.1712C118.313 62.969 118.49 62.6939 118.609 62.3459C118.732 61.9979 118.793 61.6018 118.793 61.1577C118.793 60.7135 118.732 60.3175 118.609 59.9695C118.49 59.6214 118.313 59.3464 118.077 59.1442C117.842 58.942 117.549 58.8409 117.197 58.8409C116.843 58.8409 116.544 58.942 116.303 59.1442C116.064 59.3464 115.883 59.6214 115.761 59.9695C115.641 60.3175 115.582 60.7135 115.582 61.1577C115.582 61.6018 115.641 61.9979 115.761 62.3459C115.883 62.6939 116.064 62.969 116.303 63.1712C116.544 63.37 116.843 63.4695 117.197 63.4695ZM122.323 64.9609V57.3246H124.342V58.6719H124.431C124.59 58.2244 124.855 57.8714 125.227 57.6129C125.598 57.3544 126.042 57.2251 126.559 57.2251C127.083 57.2251 127.528 57.3561 127.896 57.6179C128.264 57.8764 128.509 58.2277 128.632 58.6719H128.712C128.867 58.2344 129.149 57.8847 129.557 57.6229C129.968 57.3577 130.453 57.2251 131.013 57.2251C131.726 57.2251 132.304 57.4522 132.749 57.9062C133.196 58.357 133.42 58.9967 133.42 59.8253V64.9609H131.307V60.2429C131.307 59.8187 131.194 59.5005 130.969 59.2884C130.743 59.0762 130.462 58.9702 130.124 58.9702C129.739 58.9702 129.439 59.0928 129.224 59.3381C129.008 59.58 128.901 59.8999 128.901 60.2976V64.9609H126.847V60.1982C126.847 59.8236 126.74 59.5253 126.524 59.3033C126.312 59.0812 126.032 58.9702 125.684 58.9702C125.449 58.9702 125.236 59.0298 125.048 59.1491C124.862 59.2652 124.714 59.4292 124.605 59.6413C124.496 59.8501 124.441 60.0954 124.441 60.3771V64.9609H122.323ZM135.093 64.9609V57.3246H137.111V58.6719H137.201C137.36 58.2244 137.625 57.8714 137.996 57.6129C138.367 57.3544 138.811 57.2251 139.328 57.2251C139.852 57.2251 140.298 57.3561 140.666 57.6179C141.034 57.8764 141.279 58.2277 141.402 58.6719H141.481C141.637 58.2344 141.919 57.8847 142.326 57.6229C142.737 57.3577 143.223 57.2251 143.783 57.2251C144.496 57.2251 145.074 57.4522 145.518 57.9062C145.966 58.357 146.189 58.9967 146.189 59.8253V64.9609H144.076V60.2429C144.076 59.8187 143.964 59.5005 143.738 59.2884C143.513 59.0762 143.231 58.9702 142.893 58.9702C142.509 58.9702 142.209 59.0928 141.993 59.3381C141.778 59.58 141.67 59.8999 141.67 60.2976V64.9609H139.617V60.1982C139.617 59.8236 139.509 59.5253 139.294 59.3033C139.082 59.0812 138.801 58.9702 138.453 58.9702C138.218 58.9702 138.006 59.0298 137.817 59.1491C137.631 59.2652 137.484 59.4292 137.375 59.6413C137.265 59.8501 137.211 60.0954 137.211 60.3771V64.9609H135.093ZM152.759 61.7095V57.3246H154.877V64.9609H152.844V63.5739H152.764C152.592 64.0213 152.305 64.3809 151.904 64.6527C151.506 64.9245 151.021 65.0604 150.447 65.0604C149.937 65.0604 149.488 64.9444 149.1 64.7124C148.712 64.4804 148.409 64.1506 148.19 63.723C147.975 63.2955 147.865 62.7834 147.862 62.1868V57.3246H149.98V61.8089C149.983 62.2597 150.104 62.616 150.343 62.8778C150.582 63.1397 150.901 63.2706 151.303 63.2706C151.558 63.2706 151.796 63.2126 152.018 63.0966C152.24 62.9773 152.419 62.8016 152.555 62.5696C152.695 62.3376 152.762 62.0509 152.759 61.7095ZM158.689 60.5462V64.9609H156.571V57.3246H158.59V58.6719H158.679C158.848 58.2277 159.132 57.8764 159.529 57.6179C159.927 57.3561 160.409 57.2251 160.976 57.2251C161.506 57.2251 161.969 57.3411 162.363 57.5732C162.757 57.8052 163.064 58.1366 163.283 58.5675C163.502 58.995 163.611 59.5054 163.611 60.0987V64.9609H161.493V60.4766C161.496 60.0092 161.377 59.6446 161.135 59.3828C160.893 59.1177 160.56 58.9851 160.136 58.9851C159.851 58.9851 159.599 59.0464 159.38 59.169C159.165 59.2917 158.996 59.4706 158.873 59.706C158.754 59.938 158.692 60.218 158.689 60.5462ZM165.28 64.9609V57.3246H167.398V64.9609H165.28ZM166.344 56.3402C166.029 56.3402 165.759 56.2358 165.534 56.027C165.312 55.8149 165.201 55.5613 165.201 55.2663C165.201 54.9747 165.312 54.7244 165.534 54.5156C165.759 54.3035 166.029 54.1974 166.344 54.1974C166.659 54.1974 166.927 54.3035 167.149 54.5156C167.375 54.7244 167.488 54.9747 167.488 55.2663C167.488 55.5613 167.375 55.8149 167.149 56.027C166.927 56.2358 166.659 56.3402 166.344 56.3402ZM173.156 57.3246V58.9155H168.558V57.3246H173.156ZM169.602 55.495H171.72V62.6143C171.72 62.8099 171.749 62.9624 171.809 63.0717C171.869 63.1778 171.952 63.2524 172.058 63.2955C172.167 63.3385 172.293 63.3601 172.435 63.3601C172.535 63.3601 172.634 63.3518 172.734 63.3352C172.833 63.3153 172.909 63.3004 172.962 63.2905L173.296 64.8665C173.19 64.8996 173.04 64.9377 172.848 64.9808C172.656 65.0272 172.422 65.0554 172.147 65.0653C171.637 65.0852 171.189 65.0173 170.805 64.8615C170.424 64.7057 170.127 64.4638 169.915 64.1357C169.703 63.8075 169.598 63.3932 169.602 62.8928V55.495ZM175.844 67.8246C175.575 67.8246 175.323 67.803 175.088 67.7599C174.856 67.7202 174.664 67.6688 174.511 67.6058L174.988 66.0249C175.237 66.1011 175.461 66.1425 175.66 66.1491C175.862 66.1558 176.036 66.1094 176.182 66.0099C176.331 65.9105 176.452 65.7415 176.545 65.5028L176.669 65.1797L173.929 57.3246H176.157L177.738 62.9325H177.817L179.413 57.3246H181.655L178.687 65.7862C178.545 66.1972 178.351 66.5552 178.106 66.8601C177.864 67.1683 177.557 67.4053 177.186 67.571C176.815 67.7401 176.367 67.8246 175.844 67.8246Z" fill="#222222"/>
<path d="M126.114 96.2344H123.936C123.897 95.9527 123.816 95.7024 123.693 95.4837C123.57 95.2616 123.413 95.0727 123.221 94.9169C123.028 94.7611 122.806 94.6418 122.554 94.5589C122.306 94.4761 122.036 94.4347 121.744 94.4347C121.217 94.4347 120.758 94.5656 120.367 94.8274C119.976 95.0859 119.673 95.4638 119.457 95.9609C119.242 96.4548 119.134 97.0547 119.134 97.7607C119.134 98.4865 119.242 99.0964 119.457 99.5902C119.676 100.084 119.981 100.457 120.372 100.709C120.763 100.961 121.215 101.087 121.729 101.087C122.017 101.087 122.284 101.049 122.53 100.972C122.778 100.896 122.999 100.785 123.191 100.639C123.383 100.49 123.542 100.309 123.668 100.097C123.797 99.8852 123.887 99.6432 123.936 99.3714L126.114 99.3814C126.058 99.8487 125.917 100.299 125.691 100.734C125.469 101.165 125.169 101.551 124.792 101.892C124.417 102.23 123.97 102.499 123.449 102.697C122.932 102.893 122.347 102.991 121.694 102.991C120.786 102.991 119.974 102.785 119.258 102.374C118.546 101.963 117.982 101.368 117.568 100.589C117.157 99.8106 116.951 98.8677 116.951 97.7607C116.951 96.6503 117.16 95.7057 117.578 94.9268C117.995 94.148 118.562 93.5547 119.278 93.147C119.994 92.736 120.799 92.5305 121.694 92.5305C122.284 92.5305 122.831 92.6134 123.335 92.7791C123.842 92.9448 124.291 93.1868 124.682 93.505C125.073 93.8198 125.392 94.206 125.637 94.6634C125.885 95.1207 126.044 95.6444 126.114 96.2344ZM129.736 92.6697V102.852H127.618V92.6697H129.736ZM131.432 102.852V95.2152H133.55V102.852H131.432ZM132.496 94.2308C132.181 94.2308 131.911 94.1264 131.686 93.9176C131.464 93.7055 131.353 93.4519 131.353 93.157C131.353 92.8653 131.464 92.6151 131.686 92.4062C131.911 92.1941 132.181 92.0881 132.496 92.0881C132.811 92.0881 133.08 92.1941 133.302 92.4062C133.527 92.6151 133.64 92.8653 133.64 93.157C133.64 93.4519 133.527 93.7055 133.302 93.9176C133.08 94.1264 132.811 94.2308 132.496 94.2308ZM140.293 105.715V101.629H140.228C140.129 101.841 139.988 102.051 139.806 102.26C139.627 102.465 139.393 102.636 139.105 102.772C138.82 102.908 138.472 102.976 138.061 102.976C137.481 102.976 136.955 102.827 136.485 102.528C136.017 102.227 135.646 101.784 135.371 101.201C135.099 100.614 134.963 99.8951 134.963 99.0433C134.963 98.1683 135.104 97.4408 135.386 96.8608C135.668 96.2775 136.042 95.8416 136.51 95.5533C136.98 95.2616 137.496 95.1158 138.056 95.1158C138.483 95.1158 138.84 95.1887 139.125 95.3345C139.413 95.477 139.645 95.656 139.821 95.8714C140 96.0836 140.136 96.2924 140.228 96.4979H140.318V95.2152H142.406V105.715H140.293ZM138.732 101.29C139.073 101.29 139.362 101.198 139.597 101.012C139.836 100.823 140.018 100.56 140.144 100.222C140.273 99.8835 140.338 99.4875 140.338 99.0334C140.338 98.5793 140.275 98.1849 140.149 97.8501C140.023 97.5154 139.841 97.2569 139.602 97.0746C139.363 96.8923 139.073 96.8011 138.732 96.8011C138.384 96.8011 138.091 96.8956 137.852 97.0845C137.613 97.2734 137.433 97.5353 137.31 97.87C137.187 98.2048 137.126 98.5926 137.126 99.0334C137.126 99.4775 137.187 99.8703 137.31 100.212C137.436 100.55 137.617 100.815 137.852 101.007C138.091 101.196 138.384 101.29 138.732 101.29ZM149.003 99.6001V95.2152H151.121V102.852H149.088V101.464H149.008C148.836 101.912 148.549 102.272 148.148 102.543C147.75 102.815 147.265 102.951 146.691 102.951C146.181 102.951 145.732 102.835 145.344 102.603C144.956 102.371 144.653 102.041 144.434 101.614C144.219 101.186 144.11 100.674 144.106 100.077V95.2152H146.224V99.6996C146.227 100.15 146.348 100.507 146.587 100.768C146.826 101.03 147.146 101.161 147.547 101.161C147.802 101.161 148.04 101.103 148.262 100.987C148.485 100.868 148.664 100.692 148.799 100.46C148.939 100.228 149.007 99.9415 149.003 99.6001ZM156.295 103.001C155.51 103.001 154.834 102.842 154.267 102.523C153.703 102.202 153.269 101.748 152.964 101.161C152.659 100.571 152.507 99.8736 152.507 99.0682C152.507 98.2827 152.659 97.5933 152.964 97C153.269 96.4067 153.699 95.9444 154.252 95.6129C154.809 95.2815 155.462 95.1158 156.211 95.1158C156.715 95.1158 157.184 95.197 157.618 95.3594C158.055 95.5185 158.436 95.7588 158.761 96.0803C159.089 96.4018 159.345 96.8061 159.527 97.2933C159.709 97.7772 159.8 98.344 159.8 98.9936V99.5753H153.352V98.2628H157.807C157.807 97.9579 157.74 97.6877 157.608 97.4524C157.475 97.2171 157.291 97.0331 157.056 96.9006C156.824 96.7647 156.554 96.6967 156.246 96.6967C155.924 96.6967 155.639 96.7713 155.391 96.9205C155.145 97.0663 154.953 97.2635 154.814 97.5121C154.675 97.7573 154.603 98.0308 154.6 98.3324V99.5803C154.6 99.9581 154.67 100.285 154.809 100.56C154.951 100.835 155.152 101.047 155.41 101.196C155.669 101.345 155.975 101.42 156.33 101.42C156.565 101.42 156.781 101.387 156.976 101.32C157.172 101.254 157.339 101.155 157.479 101.022C157.618 100.889 157.724 100.727 157.797 100.535L159.756 100.664C159.656 101.135 159.452 101.546 159.144 101.897C158.839 102.245 158.445 102.517 157.961 102.712C157.48 102.905 156.925 103.001 156.295 103.001ZM167.536 97.3928L165.597 97.5121C165.564 97.3464 165.493 97.1972 165.383 97.0646C165.274 96.9287 165.13 96.821 164.951 96.7415C164.775 96.6586 164.565 96.6172 164.319 96.6172C163.991 96.6172 163.715 96.6868 163.489 96.826C163.264 96.9619 163.151 97.1442 163.151 97.3729C163.151 97.5552 163.224 97.7093 163.37 97.8352C163.516 97.9612 163.766 98.0623 164.121 98.1385L165.503 98.4169C166.245 98.5694 166.799 98.8146 167.163 99.1527C167.528 99.4908 167.71 99.9349 167.71 100.485C167.71 100.986 167.563 101.425 167.268 101.803C166.976 102.18 166.575 102.475 166.065 102.688C165.557 102.896 164.972 103.001 164.31 103.001C163.299 103.001 162.493 102.79 161.893 102.369C161.297 101.945 160.947 101.368 160.844 100.639L162.927 100.53C162.99 100.838 163.143 101.073 163.385 101.236C163.627 101.395 163.937 101.474 164.315 101.474C164.686 101.474 164.984 101.403 165.209 101.261C165.438 101.115 165.554 100.928 165.557 100.699C165.554 100.507 165.473 100.349 165.314 100.227C165.155 100.101 164.909 100.004 164.578 99.9382L163.256 99.6747C162.51 99.5256 161.955 99.267 161.59 98.8991C161.229 98.5312 161.048 98.0623 161.048 97.4922C161.048 97.0017 161.181 96.5791 161.446 96.2244C161.714 95.8698 162.091 95.5964 162.574 95.4041C163.062 95.2119 163.632 95.1158 164.285 95.1158C165.249 95.1158 166.008 95.3196 166.562 95.7273C167.118 96.1349 167.443 96.6901 167.536 97.3928Z" fill="white"/>
<path d="M96.6184 149.701V139.519H100.635C101.404 139.519 102.061 139.657 102.604 139.932C103.151 140.204 103.567 140.59 103.852 141.09C104.14 141.588 104.285 142.173 104.285 142.845C104.285 143.521 104.139 144.103 103.847 144.59C103.555 145.074 103.133 145.445 102.579 145.704C102.029 145.963 101.363 146.092 100.581 146.092H97.8911V144.362H100.233C100.644 144.362 100.985 144.305 101.257 144.193C101.529 144.08 101.731 143.911 101.863 143.686C101.999 143.46 102.067 143.18 102.067 142.845C102.067 142.507 101.999 142.222 101.863 141.99C101.731 141.758 101.527 141.583 101.252 141.463C100.98 141.341 100.637 141.279 100.223 141.279H98.7711V149.701H96.6184ZM102.117 145.068L104.648 149.701H102.271L99.7953 145.068H102.117ZM109.123 149.85C108.338 149.85 107.662 149.691 107.095 149.373C106.531 149.052 106.097 148.597 105.792 148.011C105.487 147.421 105.335 146.723 105.335 145.918C105.335 145.132 105.487 144.443 105.792 143.85C106.097 143.256 106.526 142.794 107.08 142.463C107.637 142.131 108.29 141.965 109.039 141.965C109.542 141.965 110.011 142.047 110.446 142.209C110.883 142.368 111.264 142.608 111.589 142.93C111.917 143.251 112.172 143.656 112.355 144.143C112.537 144.627 112.628 145.194 112.628 145.843V146.425H106.18V145.112H110.635C110.635 144.807 110.568 144.537 110.436 144.302C110.303 144.067 110.119 143.883 109.884 143.75C109.652 143.614 109.382 143.546 109.074 143.546C108.752 143.546 108.467 143.621 108.218 143.77C107.973 143.916 107.781 144.113 107.642 144.362C107.502 144.607 107.431 144.88 107.428 145.182V146.43C107.428 146.808 107.498 147.134 107.637 147.409C107.779 147.684 107.98 147.896 108.238 148.046C108.497 148.195 108.803 148.269 109.158 148.269C109.393 148.269 109.609 148.236 109.804 148.17C110 148.104 110.167 148.004 110.306 147.872C110.446 147.739 110.552 147.577 110.625 147.384L112.583 147.514C112.484 147.984 112.28 148.395 111.972 148.747C111.667 149.095 111.273 149.366 110.789 149.562C110.308 149.754 109.753 149.85 109.123 149.85ZM116.128 139.519V149.701H114.01V139.519H116.128ZM120.002 149.845C119.515 149.845 119.081 149.761 118.7 149.592C118.319 149.419 118.017 149.166 117.795 148.831C117.576 148.493 117.467 148.072 117.467 147.568C117.467 147.144 117.545 146.788 117.7 146.499C117.856 146.211 118.068 145.979 118.337 145.803C118.605 145.628 118.91 145.495 119.252 145.406C119.596 145.316 119.958 145.253 120.335 145.217C120.78 145.17 121.137 145.127 121.409 145.088C121.681 145.044 121.878 144.981 122.001 144.899C122.124 144.816 122.185 144.693 122.185 144.531V144.501C122.185 144.186 122.085 143.942 121.887 143.77C121.691 143.598 121.413 143.512 121.051 143.512C120.67 143.512 120.367 143.596 120.142 143.765C119.916 143.931 119.767 144.14 119.694 144.392L117.735 144.232C117.835 143.768 118.03 143.367 118.322 143.029C118.614 142.688 118.99 142.426 119.45 142.244C119.914 142.058 120.451 141.965 121.061 141.965C121.485 141.965 121.892 142.015 122.279 142.115C122.67 142.214 123.017 142.368 123.318 142.577C123.623 142.786 123.864 143.054 124.039 143.382C124.215 143.707 124.303 144.097 124.303 144.551V149.701H122.294V148.642H122.235C122.112 148.881 121.948 149.091 121.742 149.274C121.537 149.453 121.29 149.593 121.002 149.696C120.713 149.796 120.38 149.845 120.002 149.845ZM120.609 148.384C120.92 148.384 121.195 148.322 121.434 148.2C121.673 148.074 121.86 147.905 121.996 147.693C122.132 147.481 122.2 147.24 122.2 146.972V146.161C122.133 146.204 122.042 146.244 121.926 146.281C121.814 146.314 121.686 146.345 121.543 146.375C121.401 146.402 121.258 146.427 121.116 146.45C120.973 146.47 120.844 146.488 120.728 146.504C120.48 146.541 120.262 146.599 120.077 146.678C119.891 146.758 119.747 146.866 119.644 147.002C119.542 147.134 119.49 147.3 119.49 147.499C119.49 147.787 119.595 148.008 119.803 148.16C120.016 148.309 120.284 148.384 120.609 148.384ZM130.008 142.065V143.656H125.409V142.065H130.008ZM126.453 140.235H128.571V147.355C128.571 147.55 128.601 147.703 128.66 147.812C128.72 147.918 128.803 147.993 128.909 148.036C129.018 148.079 129.144 148.1 129.287 148.1C129.386 148.1 129.486 148.092 129.585 148.075C129.684 148.056 129.761 148.041 129.814 148.031L130.147 149.607C130.041 149.64 129.892 149.678 129.699 149.721C129.507 149.767 129.273 149.796 128.998 149.806C128.488 149.825 128.041 149.758 127.656 149.602C127.275 149.446 126.978 149.204 126.766 148.876C126.554 148.548 126.45 148.133 126.453 147.633V140.235ZM131.387 149.701V142.065H133.505V149.701H131.387ZM132.451 141.08C132.136 141.08 131.866 140.976 131.641 140.767C131.419 140.555 131.308 140.302 131.308 140.007C131.308 139.715 131.419 139.465 131.641 139.256C131.866 139.044 132.136 138.938 132.451 138.938C132.766 138.938 133.034 139.044 133.257 139.256C133.482 139.465 133.595 139.715 133.595 140.007C133.595 140.302 133.482 140.555 133.257 140.767C133.034 140.976 132.766 141.08 132.451 141.08ZM138.652 149.85C137.88 149.85 137.212 149.686 136.648 149.358C136.088 149.027 135.656 148.566 135.351 147.976C135.046 147.383 134.893 146.695 134.893 145.913C134.893 145.124 135.046 144.435 135.351 143.845C135.656 143.251 136.088 142.791 136.648 142.463C137.212 142.131 137.88 141.965 138.652 141.965C139.424 141.965 140.09 142.131 140.651 142.463C141.214 142.791 141.648 143.251 141.953 143.845C142.258 144.435 142.411 145.124 142.411 145.913C142.411 146.695 142.258 147.383 141.953 147.976C141.648 148.566 141.214 149.027 140.651 149.358C140.09 149.686 139.424 149.85 138.652 149.85ZM138.662 148.21C139.013 148.21 139.307 148.11 139.542 147.911C139.777 147.709 139.955 147.434 140.074 147.086C140.196 146.738 140.258 146.342 140.258 145.898C140.258 145.454 140.196 145.058 140.074 144.71C139.955 144.362 139.777 144.087 139.542 143.884C139.307 143.682 139.013 143.581 138.662 143.581C138.307 143.581 138.009 143.682 137.767 143.884C137.528 144.087 137.348 144.362 137.225 144.71C137.106 145.058 137.046 145.454 137.046 145.898C137.046 146.342 137.106 146.738 137.225 147.086C137.348 147.434 137.528 147.709 137.767 147.911C138.009 148.11 138.307 148.21 138.662 148.21ZM145.906 145.286V149.701H143.788V142.065H145.806V143.412H145.896C146.065 142.968 146.348 142.617 146.746 142.358C147.143 142.096 147.626 141.965 148.192 141.965C148.723 141.965 149.185 142.081 149.58 142.313C149.974 142.545 150.281 142.877 150.499 143.308C150.718 143.735 150.827 144.246 150.827 144.839V149.701H148.71V145.217C148.713 144.749 148.594 144.385 148.352 144.123C148.11 143.858 147.777 143.725 147.352 143.725C147.067 143.725 146.815 143.787 146.597 143.909C146.381 144.032 146.212 144.211 146.089 144.446C145.97 144.678 145.909 144.958 145.906 145.286ZM158.85 144.242L156.911 144.362C156.878 144.196 156.807 144.047 156.698 143.914C156.588 143.778 156.444 143.671 156.265 143.591C156.089 143.508 155.879 143.467 155.634 143.467C155.306 143.467 155.029 143.536 154.803 143.676C154.578 143.811 154.465 143.994 154.465 144.222C154.465 144.405 154.538 144.559 154.684 144.685C154.83 144.811 155.08 144.912 155.435 144.988L156.817 145.267C157.559 145.419 158.113 145.664 158.477 146.002C158.842 146.34 159.024 146.785 159.024 147.335C159.024 147.835 158.877 148.274 158.582 148.652C158.29 149.03 157.889 149.325 157.379 149.537C156.872 149.746 156.287 149.85 155.624 149.85C154.613 149.85 153.807 149.64 153.208 149.219C152.611 148.795 152.261 148.218 152.159 147.489L154.242 147.379C154.305 147.688 154.457 147.923 154.699 148.085C154.941 148.244 155.251 148.324 155.629 148.324C156 148.324 156.298 148.253 156.524 148.11C156.752 147.964 156.868 147.777 156.872 147.548C156.868 147.356 156.787 147.199 156.628 147.076C156.469 146.95 156.224 146.854 155.892 146.788L154.57 146.524C153.824 146.375 153.269 146.117 152.904 145.749C152.543 145.381 152.362 144.912 152.362 144.342C152.362 143.851 152.495 143.429 152.76 143.074C153.029 142.719 153.405 142.446 153.889 142.254C154.376 142.061 154.946 141.965 155.599 141.965C156.563 141.965 157.322 142.169 157.876 142.577C158.433 142.985 158.758 143.54 158.85 144.242ZM162.476 145.286V149.701H160.358V139.519H162.416V143.412H162.506C162.678 142.961 162.956 142.608 163.341 142.353C163.725 142.095 164.208 141.965 164.788 141.965C165.318 141.965 165.78 142.081 166.175 142.313C166.572 142.542 166.881 142.872 167.099 143.303C167.321 143.73 167.431 144.242 167.428 144.839V149.701H165.31V145.217C165.313 144.746 165.194 144.38 164.952 144.118C164.713 143.856 164.378 143.725 163.947 143.725C163.659 143.725 163.404 143.787 163.182 143.909C162.963 144.032 162.791 144.211 162.665 144.446C162.542 144.678 162.479 144.958 162.476 145.286ZM169.094 149.701V142.065H171.212V149.701H169.094ZM170.158 141.08C169.843 141.08 169.573 140.976 169.348 140.767C169.126 140.555 169.015 140.302 169.015 140.007C169.015 139.715 169.126 139.465 169.348 139.256C169.573 139.044 169.843 138.938 170.158 138.938C170.473 138.938 170.742 139.044 170.964 139.256C171.189 139.465 171.302 139.715 171.302 140.007C171.302 140.302 171.189 140.555 170.964 140.767C170.742 140.976 170.473 141.08 170.158 141.08ZM172.909 152.565V142.065H174.997V143.347H175.091C175.184 143.142 175.318 142.933 175.494 142.721C175.673 142.506 175.905 142.327 176.19 142.184C176.478 142.038 176.836 141.965 177.264 141.965C177.821 141.965 178.334 142.111 178.805 142.403C179.276 142.691 179.652 143.127 179.934 143.71C180.215 144.29 180.356 145.018 180.356 145.893C180.356 146.745 180.219 147.464 179.944 148.051C179.672 148.634 179.301 149.076 178.83 149.378C178.363 149.676 177.839 149.825 177.259 149.825C176.848 149.825 176.498 149.758 176.21 149.622C175.925 149.486 175.691 149.315 175.509 149.11C175.327 148.901 175.187 148.69 175.091 148.478H175.027V152.565H172.909ZM174.982 145.883C174.982 146.337 175.045 146.733 175.171 147.071C175.297 147.409 175.479 147.673 175.718 147.862C175.956 148.047 176.246 148.14 176.588 148.14C176.932 148.14 177.224 148.046 177.463 147.857C177.701 147.664 177.882 147.399 178.005 147.061C178.131 146.72 178.194 146.327 178.194 145.883C178.194 145.442 178.132 145.054 178.01 144.72C177.887 144.385 177.706 144.123 177.468 143.934C177.229 143.745 176.936 143.651 176.588 143.651C176.243 143.651 175.951 143.742 175.713 143.924C175.477 144.106 175.297 144.365 175.171 144.7C175.045 145.035 174.982 145.429 174.982 145.883ZM188.122 144.242L186.183 144.362C186.15 144.196 186.078 144.047 185.969 143.914C185.86 143.778 185.716 143.671 185.537 143.591C185.361 143.508 185.15 143.467 184.905 143.467C184.577 143.467 184.3 143.536 184.075 143.676C183.85 143.811 183.737 143.994 183.737 144.222C183.737 144.405 183.81 144.559 183.956 144.685C184.101 144.811 184.352 144.912 184.706 144.988L186.088 145.267C186.831 145.419 187.384 145.664 187.749 146.002C188.114 146.34 188.296 146.785 188.296 147.335C188.296 147.835 188.148 148.274 187.853 148.652C187.562 149.03 187.161 149.325 186.65 149.537C186.143 149.746 185.558 149.85 184.895 149.85C183.884 149.85 183.079 149.64 182.479 149.219C181.882 148.795 181.533 148.218 181.43 147.489L183.513 147.379C183.576 147.688 183.729 147.923 183.971 148.085C184.212 148.244 184.522 148.324 184.9 148.324C185.271 148.324 185.57 148.253 185.795 148.11C186.024 147.964 186.14 147.777 186.143 147.548C186.14 147.356 186.059 147.199 185.899 147.076C185.74 146.95 185.495 146.854 185.164 146.788L183.841 146.524C183.096 146.375 182.54 146.117 182.176 145.749C181.814 145.381 181.634 144.912 181.634 144.342C181.634 143.851 181.766 143.429 182.032 143.074C182.3 142.719 182.676 142.446 183.16 142.254C183.647 142.061 184.217 141.965 184.87 141.965C185.835 141.965 186.594 142.169 187.147 142.577C187.704 142.985 188.029 143.54 188.122 144.242Z" fill="#222222"/>
<path d="M105.189 212.111V222.293H103.036V212.111H105.189ZM109.038 217.878V222.293H106.92V214.657H108.938V216.004H109.028C109.197 215.56 109.48 215.208 109.878 214.95C110.276 214.688 110.758 214.557 111.325 214.557C111.855 214.557 112.317 214.673 112.712 214.905C113.106 215.137 113.413 215.469 113.632 215.9C113.85 216.327 113.96 216.837 113.96 217.431V222.293H111.842V217.809C111.845 217.341 111.726 216.977 111.484 216.715C111.242 216.45 110.909 216.317 110.485 216.317C110.2 216.317 109.948 216.378 109.729 216.501C109.513 216.624 109.344 216.803 109.222 217.038C109.103 217.27 109.041 217.55 109.038 217.878ZM118.443 222.417C117.863 222.417 117.338 222.268 116.867 221.97C116.4 221.668 116.028 221.226 115.753 220.642C115.481 220.056 115.346 219.337 115.346 218.485C115.346 217.61 115.486 216.882 115.768 216.302C116.05 215.719 116.424 215.283 116.892 214.995C117.362 214.703 117.878 214.557 118.438 214.557C118.865 214.557 119.222 214.63 119.507 214.776C119.795 214.918 120.027 215.097 120.203 215.313C120.382 215.525 120.518 215.734 120.611 215.939H120.675V212.111H122.788V222.293H120.7V221.07H120.611C120.511 221.282 120.37 221.493 120.188 221.701C120.009 221.907 119.775 222.078 119.487 222.213C119.202 222.349 118.854 222.417 118.443 222.417ZM119.114 220.732C119.455 220.732 119.744 220.639 119.979 220.453C120.218 220.265 120.4 220.001 120.526 219.663C120.655 219.325 120.72 218.929 120.72 218.475C120.72 218.021 120.657 217.626 120.531 217.292C120.405 216.957 120.223 216.698 119.984 216.516C119.745 216.334 119.455 216.243 119.114 216.243C118.766 216.243 118.473 216.337 118.234 216.526C117.995 216.715 117.815 216.977 117.692 217.311C117.57 217.646 117.508 218.034 117.508 218.475C117.508 218.919 117.57 219.312 117.692 219.653C117.818 219.991 117.999 220.256 118.234 220.449C118.473 220.637 118.766 220.732 119.114 220.732ZM124.529 222.293V214.657H126.647V222.293H124.529ZM125.593 213.672C125.278 213.672 125.008 213.568 124.783 213.359C124.561 213.147 124.45 212.893 124.45 212.598C124.45 212.307 124.561 212.056 124.783 211.848C125.008 211.636 125.278 211.529 125.593 211.529C125.908 211.529 126.177 211.636 126.399 211.848C126.624 212.056 126.737 212.307 126.737 212.598C126.737 212.893 126.624 213.147 126.399 213.359C126.177 213.568 125.908 213.672 125.593 213.672ZM135.463 214.657L132.793 222.293H130.407L127.737 214.657H129.974L131.56 220.12H131.64L133.221 214.657H135.463ZM136.547 222.293V214.657H138.665V222.293H136.547ZM137.611 213.672C137.296 213.672 137.026 213.568 136.8 213.359C136.578 213.147 136.467 212.893 136.467 212.598C136.467 212.307 136.578 212.056 136.8 211.848C137.026 211.636 137.296 211.529 137.611 211.529C137.926 211.529 138.194 211.636 138.416 211.848C138.642 212.056 138.754 212.307 138.754 212.598C138.754 212.893 138.642 213.147 138.416 213.359C138.194 213.568 137.926 213.672 137.611 213.672ZM143.175 222.417C142.595 222.417 142.07 222.268 141.599 221.97C141.132 221.668 140.761 221.226 140.486 220.642C140.214 220.056 140.078 219.337 140.078 218.485C140.078 217.61 140.219 216.882 140.501 216.302C140.782 215.719 141.157 215.283 141.624 214.995C142.095 214.703 142.61 214.557 143.17 214.557C143.598 214.557 143.954 214.63 144.239 214.776C144.528 214.918 144.76 215.097 144.935 215.313C145.114 215.525 145.25 215.734 145.343 215.939H145.408V212.111H147.52V222.293H145.432V221.07H145.343C145.243 221.282 145.103 221.493 144.92 221.701C144.741 221.907 144.508 222.078 144.219 222.213C143.934 222.349 143.586 222.417 143.175 222.417ZM143.846 220.732C144.188 220.732 144.476 220.639 144.712 220.453C144.95 220.265 145.132 220.001 145.258 219.663C145.388 219.325 145.452 218.929 145.452 218.475C145.452 218.021 145.389 217.626 145.263 217.292C145.137 216.957 144.955 216.698 144.717 216.516C144.478 216.334 144.188 216.243 143.846 216.243C143.498 216.243 143.205 216.337 142.967 216.526C142.728 216.715 142.547 216.977 142.425 217.311C142.302 217.646 142.241 218.034 142.241 218.475C142.241 218.919 142.302 219.312 142.425 219.653C142.551 219.991 142.731 220.256 142.967 220.449C143.205 220.637 143.498 220.732 143.846 220.732ZM154.159 219.042V214.657H156.277V222.293H154.243V220.906H154.164C153.991 221.353 153.705 221.713 153.304 221.985C152.906 222.257 152.42 222.392 151.847 222.392C151.337 222.392 150.887 222.276 150.5 222.044C150.112 221.812 149.809 221.483 149.59 221.055C149.374 220.627 149.265 220.115 149.262 219.519V214.657H151.38V219.141C151.383 219.592 151.504 219.948 151.743 220.21C151.981 220.472 152.301 220.603 152.702 220.603C152.957 220.603 153.196 220.545 153.418 220.429C153.64 220.309 153.819 220.134 153.955 219.902C154.094 219.67 154.162 219.383 154.159 219.042ZM160.148 222.437C159.661 222.437 159.227 222.353 158.846 222.184C158.465 222.011 158.163 221.758 157.941 221.423C157.722 221.085 157.613 220.664 157.613 220.16C157.613 219.736 157.691 219.38 157.846 219.091C158.002 218.803 158.214 218.571 158.483 218.395C158.751 218.22 159.056 218.087 159.398 217.998C159.742 217.908 160.104 217.845 160.481 217.809C160.926 217.762 161.284 217.719 161.555 217.679C161.827 217.636 162.024 217.573 162.147 217.49C162.27 217.408 162.331 217.285 162.331 217.123V217.093C162.331 216.778 162.231 216.534 162.033 216.362C161.837 216.19 161.559 216.103 161.197 216.103C160.816 216.103 160.513 216.188 160.288 216.357C160.062 216.523 159.913 216.731 159.84 216.983L157.881 216.824C157.981 216.36 158.176 215.959 158.468 215.621C158.76 215.28 159.136 215.018 159.596 214.836C160.06 214.65 160.597 214.557 161.207 214.557C161.632 214.557 162.038 214.607 162.425 214.706C162.816 214.806 163.163 214.96 163.464 215.169C163.769 215.377 164.01 215.646 164.185 215.974C164.361 216.299 164.449 216.688 164.449 217.142V222.293H162.44V221.234H162.381C162.258 221.473 162.094 221.683 161.888 221.865C161.683 222.044 161.436 222.185 161.148 222.288C160.859 222.387 160.526 222.437 160.148 222.437ZM160.755 220.975C161.066 220.975 161.342 220.914 161.58 220.792C161.819 220.666 162.006 220.497 162.142 220.284C162.278 220.072 162.346 219.832 162.346 219.564V218.753C162.279 218.796 162.188 218.836 162.072 218.873C161.96 218.906 161.832 218.937 161.69 218.967C161.547 218.993 161.404 219.018 161.262 219.042C161.119 219.061 160.99 219.08 160.874 219.096C160.626 219.133 160.409 219.191 160.223 219.27C160.037 219.35 159.893 219.458 159.79 219.593C159.688 219.726 159.636 219.892 159.636 220.091C159.636 220.379 159.741 220.599 159.949 220.752C160.162 220.901 160.43 220.975 160.755 220.975ZM168.21 212.111V222.293H166.092V212.111H168.21ZM176.26 216.834L174.321 216.953C174.288 216.788 174.217 216.639 174.107 216.506C173.998 216.37 173.854 216.262 173.675 216.183C173.499 216.1 173.289 216.059 173.043 216.059C172.715 216.059 172.439 216.128 172.213 216.267C171.988 216.403 171.875 216.586 171.875 216.814C171.875 216.997 171.948 217.151 172.094 217.277C172.24 217.403 172.49 217.504 172.845 217.58L174.227 217.858C174.969 218.011 175.523 218.256 175.887 218.594C176.252 218.932 176.434 219.376 176.434 219.926C176.434 220.427 176.287 220.866 175.992 221.244C175.7 221.622 175.299 221.917 174.788 222.129C174.281 222.338 173.696 222.442 173.033 222.442C172.023 222.442 171.217 222.232 170.617 221.811C170.021 221.386 169.671 220.81 169.568 220.081L171.651 219.971C171.714 220.279 171.867 220.515 172.109 220.677C172.351 220.836 172.661 220.916 173.038 220.916C173.41 220.916 173.708 220.845 173.933 220.702C174.162 220.556 174.278 220.369 174.281 220.14C174.278 219.948 174.197 219.791 174.038 219.668C173.879 219.542 173.633 219.446 173.302 219.38L171.979 219.116C171.234 218.967 170.679 218.708 170.314 218.341C169.953 217.973 169.772 217.504 169.772 216.934C169.772 216.443 169.905 216.02 170.17 215.666C170.438 215.311 170.814 215.038 171.298 214.846C171.786 214.653 172.356 214.557 173.009 214.557C173.973 214.557 174.732 214.761 175.286 215.169C175.842 215.576 176.167 216.132 176.26 216.834Z" fill="white"/>
</svg>
