<svg width="128" height="14" viewBox="0 0 128 14" fill="none" xmlns="http://www.w3.org/2000/svg">
<path d="M0.84517 13.8636V3.36364H2.93324V4.64631H3.0277C3.1205 4.44081 3.25473 4.23201 3.4304 4.01989C3.60938 3.80445 3.84138 3.62547 4.12642 3.48295C4.41477 3.33712 4.77273 3.2642 5.20028 3.2642C5.7571 3.2642 6.27083 3.41004 6.74148 3.7017C7.21212 3.99006 7.58831 4.4259 7.87003 5.00923C8.15175 5.58925 8.29261 6.31676 8.29261 7.19176C8.29261 8.04356 8.15507 8.76278 7.87997 9.34943C7.60819 9.93277 7.23698 10.3752 6.76634 10.6768C6.29901 10.9751 5.77533 11.1243 5.19531 11.1243C4.78433 11.1243 4.43466 11.0563 4.14631 10.9205C3.86127 10.7846 3.6276 10.6139 3.44531 10.4084C3.26302 10.1996 3.12382 9.98911 3.0277 9.77699H2.96307V13.8636H0.84517ZM2.91832 7.18182C2.91832 7.63589 2.9813 8.03196 3.10724 8.37003C3.23319 8.7081 3.41548 8.97159 3.65412 9.16051C3.89276 9.34612 4.18277 9.43892 4.52415 9.43892C4.86884 9.43892 5.16051 9.34446 5.39915 9.15554C5.63778 8.9633 5.81842 8.69815 5.94105 8.36009C6.067 8.0187 6.12997 7.62595 6.12997 7.18182C6.12997 6.741 6.06866 6.35322 5.94602 6.01847C5.82339 5.68371 5.64276 5.42187 5.40412 5.23295C5.16548 5.04403 4.87216 4.94957 4.52415 4.94957C4.17945 4.94957 3.88778 5.04072 3.64915 5.22301C3.41383 5.4053 3.23319 5.66383 3.10724 5.99858C2.9813 6.33333 2.91832 6.72775 2.91832 7.18182ZM13.1548 11.1491C12.3826 11.1491 11.7147 10.9851 11.1513 10.657C10.5911 10.3255 10.1586 9.86482 9.85369 9.27486C9.54877 8.68158 9.39631 7.99384 9.39631 7.21165C9.39631 6.42282 9.54877 5.73343 9.85369 5.14347C10.1586 4.55019 10.5911 4.08949 11.1513 3.76136C11.7147 3.42992 12.3826 3.2642 13.1548 3.2642C13.9271 3.2642 14.5933 3.42992 15.1534 3.76136C15.7169 4.08949 16.151 4.55019 16.456 5.14347C16.7609 5.73343 16.9134 6.42282 16.9134 7.21165C16.9134 7.99384 16.7609 8.68158 16.456 9.27486C16.151 9.86482 15.7169 10.3255 15.1534 10.657C14.5933 10.9851 13.9271 11.1491 13.1548 11.1491ZM13.1648 9.50852C13.5161 9.50852 13.8094 9.40909 14.0447 9.21023C14.2801 9.00805 14.4574 8.73295 14.5767 8.38494C14.6993 8.03693 14.7607 7.64086 14.7607 7.19673C14.7607 6.7526 14.6993 6.35653 14.5767 6.00852C14.4574 5.66051 14.2801 5.38542 14.0447 5.18324C13.8094 4.98106 13.5161 4.87997 13.1648 4.87997C12.8101 4.87997 12.5118 4.98106 12.2699 5.18324C12.0313 5.38542 11.8506 5.66051 11.728 6.00852C11.6087 6.35653 11.549 6.7526 11.549 7.19673C11.549 7.64086 11.6087 8.03693 11.728 8.38494C11.8506 8.73295 12.0313 9.00805 12.2699 9.21023C12.5118 9.40909 12.8101 9.50852 13.1648 9.50852ZM19.6055 11L17.5273 3.36364H19.6701L20.8533 8.49432H20.9229L22.1559 3.36364H24.2589L25.5117 8.46449H25.5763L26.7397 3.36364H28.8775L26.8043 11H24.5621L23.2496 6.19744H23.1552L21.8427 11H19.6055ZM33.296 11.1491C32.5105 11.1491 31.8343 10.9901 31.2676 10.6719C30.7041 10.3504 30.2699 9.89631 29.965 9.30966C29.6601 8.7197 29.5076 8.02202 29.5076 7.21662C29.5076 6.43111 29.6601 5.74171 29.965 5.14844C30.2699 4.55516 30.6992 4.0928 31.2527 3.76136C31.8095 3.42992 32.4624 3.2642 33.2115 3.2642C33.7153 3.2642 34.1842 3.34541 34.6184 3.50781C35.0559 3.6669 35.4371 3.9072 35.7619 4.22869C36.09 4.55019 36.3452 4.95455 36.5275 5.44176C36.7098 5.92566 36.801 6.49242 36.801 7.14205V7.72372H30.3528V6.41122H34.8074C34.8074 6.1063 34.7411 5.83617 34.6085 5.60085C34.4759 5.36553 34.292 5.18158 34.0566 5.04901C33.8246 4.91312 33.5545 4.84517 33.2463 4.84517C32.9248 4.84517 32.6397 4.91974 32.3912 5.06889C32.1459 5.21473 31.9537 5.41193 31.8145 5.66051C31.6752 5.90578 31.604 6.17921 31.6007 6.48082V7.72869C31.6007 8.10653 31.6703 8.433 31.8095 8.7081C31.952 8.98319 32.1525 9.19531 32.411 9.34446C32.6696 9.49361 32.9761 9.56818 33.3308 9.56818C33.5661 9.56818 33.7815 9.53504 33.9771 9.46875C34.1726 9.40246 34.34 9.30303 34.4792 9.17045C34.6184 9.03788 34.7245 8.87547 34.7974 8.68324L36.7562 8.8125C36.6568 9.28314 36.4529 9.69413 36.1447 10.0455C35.8398 10.3935 35.4454 10.6652 34.9615 10.8608C34.4809 11.053 33.9257 11.1491 33.296 11.1491ZM38.1831 11V3.36364H40.2363V4.69602H40.3159C40.4551 4.22206 40.6887 3.86411 41.0169 3.62216C41.345 3.37689 41.7228 3.25426 42.1504 3.25426C42.2565 3.25426 42.3708 3.26089 42.4934 3.27415C42.6161 3.28741 42.7238 3.30563 42.8166 3.32883V5.2081C42.7172 5.17827 42.5796 5.15175 42.4039 5.12855C42.2283 5.10535 42.0675 5.09375 41.9217 5.09375C41.6101 5.09375 41.3317 5.1617 41.0865 5.29759C40.8445 5.43016 40.6523 5.61577 40.5098 5.8544C40.3706 6.09304 40.301 6.36813 40.301 6.67969V11H38.1831ZM47.0362 11.1491C46.2507 11.1491 45.5746 10.9901 45.0078 10.6719C44.4444 10.3504 44.0102 9.89631 43.7053 9.30966C43.4003 8.7197 43.2479 8.02202 43.2479 7.21662C43.2479 6.43111 43.4003 5.74171 43.7053 5.14844C44.0102 4.55516 44.4394 4.0928 44.9929 3.76136C45.5497 3.42992 46.2027 3.2642 46.9517 3.2642C47.4555 3.2642 47.9245 3.34541 48.3587 3.50781C48.7962 3.6669 49.1773 3.9072 49.5021 4.22869C49.8303 4.55019 50.0855 4.95455 50.2678 5.44176C50.45 5.92566 50.5412 6.49242 50.5412 7.14205V7.72372H44.093V6.41122H48.5476C48.5476 6.1063 48.4813 5.83617 48.3487 5.60085C48.2161 5.36553 48.0322 5.18158 47.7969 5.04901C47.5649 4.91312 47.2947 4.84517 46.9865 4.84517C46.665 4.84517 46.38 4.91974 46.1314 5.06889C45.8861 5.21473 45.6939 5.41193 45.5547 5.66051C45.4155 5.90578 45.3442 6.17921 45.3409 6.48082V7.72869C45.3409 8.10653 45.4105 8.433 45.5497 8.7081C45.6922 8.98319 45.8928 9.19531 46.1513 9.34446C46.4098 9.49361 46.7164 9.56818 47.071 9.56818C47.3063 9.56818 47.5218 9.53504 47.7173 9.46875C47.9129 9.40246 48.0803 9.30303 48.2195 9.17045C48.3587 9.03788 48.4647 8.87547 48.5376 8.68324L50.4964 8.8125C50.397 9.28314 50.1932 9.69413 49.8849 10.0455C49.58 10.3935 49.1856 10.6652 48.7017 10.8608C48.2211 11.053 47.666 11.1491 47.0362 11.1491ZM54.7372 11.1243C54.1572 11.1243 53.6319 10.9751 53.1612 10.6768C52.6939 10.3752 52.3227 9.93277 52.0476 9.34943C51.7758 8.76278 51.6399 8.04356 51.6399 7.19176C51.6399 6.31676 51.7808 5.58925 52.0625 5.00923C52.3442 4.4259 52.7188 3.99006 53.1861 3.7017C53.6567 3.41004 54.1721 3.2642 54.7322 3.2642C55.1598 3.2642 55.5161 3.33712 55.8011 3.48295C56.0895 3.62547 56.3215 3.80445 56.4972 4.01989C56.6761 4.23201 56.812 4.44081 56.9048 4.64631H56.9695V0.818182H59.0824V11H56.9943V9.77699H56.9048C56.8054 9.98911 56.6645 10.1996 56.4822 10.4084C56.3033 10.6139 56.0696 10.7846 55.7812 10.9205C55.4962 11.0563 55.1482 11.1243 54.7372 11.1243ZM55.4084 9.43892C55.7498 9.43892 56.0381 9.34612 56.2734 9.16051C56.5121 8.97159 56.6944 8.7081 56.8203 8.37003C56.9496 8.03196 57.0142 7.63589 57.0142 7.18182C57.0142 6.72775 56.9512 6.33333 56.8253 5.99858C56.6993 5.66383 56.517 5.4053 56.2784 5.22301C56.0398 5.04072 55.7498 4.94957 55.4084 4.94957C55.0604 4.94957 54.767 5.04403 54.5284 5.23295C54.2898 5.42187 54.1091 5.68371 53.9865 6.01847C53.8639 6.35322 53.8026 6.741 53.8026 7.18182C53.8026 7.62595 53.8639 8.0187 53.9865 8.36009C54.1125 8.69815 54.2931 8.9633 54.5284 9.15554C54.767 9.34446 55.0604 9.43892 55.4084 9.43892ZM64.1037 11V0.818182H66.2216V4.64631H66.2862C66.379 4.44081 66.5133 4.23201 66.6889 4.01989C66.8679 3.80445 67.0999 3.62547 67.3849 3.48295C67.6733 3.33712 68.0313 3.2642 68.4588 3.2642C69.0156 3.2642 69.5294 3.41004 70 3.7017C70.4706 3.99006 70.8468 4.4259 71.1286 5.00923C71.4103 5.58925 71.5511 6.31676 71.5511 7.19176C71.5511 8.04356 71.4136 8.76278 71.1385 9.34943C70.8667 9.93277 70.4955 10.3752 70.0249 10.6768C69.5575 10.9751 69.0339 11.1243 68.4538 11.1243C68.0429 11.1243 67.6932 11.0563 67.4048 10.9205C67.1198 10.7846 66.8861 10.6139 66.7038 10.4084C66.5215 10.1996 66.3823 9.98911 66.2862 9.77699H66.1918V11H64.1037ZM66.1768 7.18182C66.1768 7.63589 66.2398 8.03196 66.3658 8.37003C66.4917 8.7081 66.674 8.97159 66.9126 9.16051C67.1513 9.34612 67.4413 9.43892 67.7827 9.43892C68.1274 9.43892 68.419 9.34446 68.6577 9.15554C68.8963 8.9633 69.0769 8.69815 69.1996 8.36009C69.3255 8.0187 69.3885 7.62595 69.3885 7.18182C69.3885 6.741 69.3272 6.35322 69.2045 6.01847C69.0819 5.68371 68.9013 5.42187 68.6626 5.23295C68.424 5.04403 68.1307 4.94957 67.7827 4.94957C67.438 4.94957 67.1463 5.04072 66.9077 5.22301C66.6723 5.4053 66.4917 5.66383 66.3658 5.99858C66.2398 6.33333 66.1768 6.72775 66.1768 7.18182ZM74.0257 13.8636C73.7573 13.8636 73.5054 13.8421 73.2701 13.799C73.0381 13.7592 72.8458 13.7079 72.6934 13.6449L73.1706 12.0639C73.4192 12.1402 73.6429 12.1816 73.8418 12.1882C74.044 12.1948 74.218 12.1484 74.3638 12.049C74.513 11.9496 74.6339 11.7805 74.7267 11.5419L74.851 11.2188L72.1117 3.36364H74.339L75.9199 8.97159H75.9995L77.5953 3.36364H79.8375L76.8695 11.8253C76.727 12.2363 76.5331 12.5942 76.2878 12.8991C76.0459 13.2074 75.7393 13.4444 75.3681 13.6101C74.9969 13.7791 74.5494 13.8636 74.0257 13.8636ZM84.2013 11V0.818182H88.2184C88.9873 0.818182 89.6436 0.955729 90.1871 1.23082C90.734 1.5026 91.15 1.88873 91.435 2.3892C91.7234 2.88636 91.8675 3.47135 91.8675 4.14418C91.8675 4.82031 91.7217 5.40199 91.43 5.8892C91.1384 6.37311 90.7158 6.74432 90.1623 7.00284C89.6121 7.26136 88.9459 7.39062 88.1637 7.39062H85.4741V5.66051H87.8157C88.2267 5.66051 88.5681 5.60417 88.8398 5.49148C89.1116 5.37879 89.3138 5.20975 89.4464 4.98438C89.5823 4.759 89.6502 4.47893 89.6502 4.14418C89.6502 3.80611 89.5823 3.52107 89.4464 3.28906C89.3138 3.05705 89.11 2.88139 88.8349 2.76207C88.5631 2.63944 88.2201 2.57812 87.8058 2.57812H86.354V11H84.2013ZM89.6999 6.36648L92.2305 11H89.854L87.3782 6.36648H89.6999ZM95.467 6.58523V11H93.3491V3.36364H95.3675V4.71094H95.457C95.6261 4.26681 95.9094 3.91548 96.3072 3.65696C96.7049 3.39512 97.1871 3.2642 97.7539 3.2642C98.2842 3.2642 98.7466 3.38021 99.141 3.61222C99.5354 3.84422 99.842 4.17566 100.061 4.60653C100.279 5.03409 100.389 5.54451 100.389 6.13778V11H98.271V6.51562C98.2743 6.0483 98.1549 5.68371 97.913 5.42188C97.671 5.15672 97.3379 5.02415 96.9137 5.02415C96.6287 5.02415 96.3768 5.08546 96.158 5.2081C95.9426 5.33073 95.7736 5.50971 95.6509 5.74503C95.5316 5.97704 95.4703 6.2571 95.467 6.58523ZM105.707 11H102.098V0.818182H105.737C106.761 0.818182 107.643 1.02202 108.382 1.42969C109.121 1.83404 109.689 2.41572 110.087 3.17472C110.488 3.93371 110.689 4.84186 110.689 5.89915C110.689 6.95975 110.488 7.87121 110.087 8.63352C109.689 9.39583 109.118 9.98082 108.372 10.3885C107.63 10.7962 106.741 11 105.707 11ZM104.251 9.15554H105.618C106.254 9.15554 106.789 9.04285 107.224 8.81747C107.661 8.58878 107.989 8.2358 108.208 7.75852C108.43 7.27794 108.541 6.65814 108.541 5.89915C108.541 5.14678 108.43 4.53196 108.208 4.05469C107.989 3.57741 107.663 3.22609 107.229 3.00071C106.794 2.77533 106.259 2.66264 105.623 2.66264H104.251V9.15554ZM114.421 11.1442C113.934 11.1442 113.5 11.0597 113.119 10.8906C112.737 10.7183 112.436 10.4647 112.214 10.13C111.995 9.7919 111.886 9.37098 111.886 8.86719C111.886 8.44295 111.964 8.08665 112.119 7.7983C112.275 7.50994 112.487 7.27794 112.756 7.10227C113.024 6.92661 113.329 6.79403 113.67 6.70455C114.015 6.61506 114.376 6.55208 114.754 6.51562C115.198 6.46922 115.556 6.42614 115.828 6.38636C116.1 6.34328 116.297 6.2803 116.42 6.19744C116.542 6.11458 116.604 5.99195 116.604 5.82955V5.79972C116.604 5.48485 116.504 5.24124 116.305 5.06889C116.11 4.89654 115.831 4.81037 115.47 4.81037C115.089 4.81037 114.786 4.89489 114.56 5.06392C114.335 5.22964 114.186 5.43845 114.113 5.69034L112.154 5.53125C112.254 5.06723 112.449 4.66619 112.741 4.32812C113.032 3.98674 113.409 3.7249 113.869 3.54261C114.333 3.35701 114.87 3.2642 115.48 3.2642C115.904 3.2642 116.31 3.31392 116.698 3.41335C117.089 3.51278 117.436 3.6669 117.737 3.87571C118.042 4.08452 118.282 4.35298 118.458 4.68111C118.634 5.00592 118.722 5.39536 118.722 5.84943V11H116.713V9.94105H116.653C116.531 10.1797 116.367 10.3902 116.161 10.5724C115.956 10.7514 115.709 10.8923 115.42 10.995C115.132 11.0945 114.799 11.1442 114.421 11.1442ZM115.028 9.68253C115.339 9.68253 115.614 9.62121 115.853 9.49858C116.092 9.37263 116.279 9.2036 116.415 8.99148C116.551 8.77936 116.619 8.53906 116.619 8.2706V7.46023C116.552 7.50331 116.461 7.54309 116.345 7.57955C116.232 7.61269 116.105 7.64418 115.962 7.67401C115.82 7.70052 115.677 7.72538 115.535 7.74858C115.392 7.76847 115.263 7.78669 115.147 7.80327C114.898 7.83973 114.681 7.89773 114.496 7.97727C114.31 8.05682 114.166 8.16454 114.063 8.30043C113.96 8.433 113.909 8.59872 113.909 8.79759C113.909 9.08594 114.013 9.30634 114.222 9.45881C114.434 9.60795 114.703 9.68253 115.028 9.68253ZM123.815 11.1491C123.043 11.1491 122.375 10.9851 121.811 10.657C121.251 10.3255 120.819 9.86482 120.514 9.27486C120.209 8.68158 120.056 7.99384 120.056 7.21165C120.056 6.42282 120.209 5.73343 120.514 5.14347C120.819 4.55019 121.251 4.08949 121.811 3.76136C122.375 3.42992 123.043 3.2642 123.815 3.2642C124.587 3.2642 125.253 3.42992 125.814 3.76136C126.377 4.08949 126.811 4.55019 127.116 5.14347C127.421 5.73343 127.574 6.42282 127.574 7.21165C127.574 7.99384 127.421 8.68158 127.116 9.27486C126.811 9.86482 126.377 10.3255 125.814 10.657C125.253 10.9851 124.587 11.1491 123.815 11.1491ZM123.825 9.50852C124.176 9.50852 124.47 9.40909 124.705 9.21023C124.94 9.00805 125.118 8.73295 125.237 8.38494C125.359 8.03693 125.421 7.64086 125.421 7.19673C125.421 6.7526 125.359 6.35653 125.237 6.00852C125.118 5.66051 124.94 5.38542 124.705 5.18324C124.47 4.98106 124.176 4.87997 123.825 4.87997C123.47 4.87997 123.172 4.98106 122.93 5.18324C122.691 5.38542 122.511 5.66051 122.388 6.00852C122.269 6.35653 122.209 6.7526 122.209 7.19673C122.209 7.64086 122.269 8.03693 122.388 8.38494C122.511 8.73295 122.691 9.00805 122.93 9.21023C123.172 9.40909 123.47 9.50852 123.825 9.50852Z" fill="black"/>
</svg>
