<svg width="28" height="27" viewBox="0 0 28 27" fill="none" xmlns="http://www.w3.org/2000/svg">
<path d="M13.0877 1.03272C13.4411 0.245345 14.5589 0.245347 14.9123 1.03272L18.2042 8.36721C18.3496 8.6912 18.6559 8.91376 19.009 8.95194L27.0017 9.8162C27.8598 9.90898 28.2052 10.9721 27.5656 11.5515L21.6073 16.9488C21.3441 17.1872 21.2271 17.5473 21.2999 17.8949L22.9478 25.7635C23.1248 26.6082 22.2204 27.2653 21.4717 26.836L14.4974 22.8372C14.1893 22.6606 13.8107 22.6606 13.5026 22.8372L6.52832 26.836C5.77962 27.2653 4.87524 26.6082 5.05216 25.7635L6.70009 17.8949C6.77289 17.5473 6.65588 17.1872 6.39268 16.9488L0.434404 11.5515C-0.205231 10.9721 0.140212 9.90898 0.998254 9.8162L8.991 8.95194C9.34407 8.91376 9.65041 8.6912 9.79582 8.36721L13.0877 1.03272Z" fill="#222222"/>
</svg>
