<svg width="100" height="26" viewBox="0 0 100 26" fill="none" xmlns="http://www.w3.org/2000/svg">
<path d="M97.7351 8.65676C97.6936 8.5994 97.7213 8.51555 97.795 8.4979C98.3528 8.34346 98.8137 8.06545 99.164 7.66389C99.5927 7.17408 99.8139 6.55188 99.8139 5.81936C99.8139 5.25452 99.6802 4.76029 99.4221 4.33667C99.1594 3.91304 98.7906 3.58209 98.3205 3.34821C97.8549 3.11875 97.3018 2.9996 96.6842 2.9996H94.5593C94.5317 2.9996 94.504 3.00843 94.4809 3.03049L93.2503 4.2087C93.2503 4.2087 93.218 4.25283 93.218 4.28371V11.7545C93.218 11.8119 93.2641 11.856 93.324 11.856H94.209C94.2689 11.856 94.315 11.8119 94.315 11.7545V8.75384C94.315 8.69648 94.3611 8.65235 94.421 8.65235H96.3201C96.3569 8.65235 96.3892 8.67 96.4076 8.69648L98.7399 11.8207C98.7584 11.8472 98.7906 11.8648 98.8275 11.8648H99.8923C99.9798 11.8648 100.031 11.7722 99.9798 11.7016L97.7305 8.66559L97.7351 8.65676ZM94.3196 4.12927C94.3196 4.0719 94.3657 4.02777 94.4256 4.02777H96.6012C97.2604 4.02777 97.7812 4.19105 98.1499 4.51318C98.5187 4.83531 98.6985 5.26335 98.6985 5.82818C98.6985 6.39302 98.5187 6.82988 98.1499 7.15642C97.7812 7.47856 97.2604 7.64183 96.6012 7.64183H94.4256C94.3657 7.64183 94.3196 7.5977 94.3196 7.54033V4.12927Z" fill="#0C0066"/>
<path d="M39.1327 3.11138V3.92332C39.1327 3.98069 39.0867 4.02482 39.0267 4.02482H36.1598C36.0998 4.02482 36.0537 4.06895 36.0537 4.12631V11.756C36.0537 11.8133 36.0076 11.8575 35.9477 11.8575H35.0766C35.0166 11.8575 34.9706 11.8133 34.9706 11.756V4.12631C34.9706 4.06895 34.9245 4.02482 34.8645 4.02482H32.0068C31.9469 4.02482 31.9008 3.98069 31.9008 3.92332V3.11138C31.9008 3.05401 31.9469 3.00988 32.0068 3.00988H39.0359C39.0959 3.00988 39.142 3.05401 39.142 3.11138H39.1327Z" fill="#0C0066"/>
<path d="M48.388 5.0572C47.987 4.36439 47.42 3.81721 46.701 3.42889C45.9819 3.04497 45.1523 2.8464 44.2258 2.8464C43.2993 2.8464 42.4835 3.04056 41.7644 3.42889C41.0454 3.81721 40.4738 4.36439 40.0728 5.0572C39.6718 5.75 39.4644 6.54871 39.4644 7.43567C39.4644 8.32264 39.6672 9.12135 40.0728 9.80974C40.4784 10.5025 41.0454 11.0497 41.7644 11.4381C42.4835 11.822 43.3085 12.0205 44.2258 12.0205C45.143 12.0205 45.9819 11.8264 46.701 11.4381C47.42 11.0497 47.987 10.5025 48.388 9.80974C48.7844 9.11694 48.9872 8.31823 48.9872 7.43567C48.9872 6.55312 48.7844 5.75 48.388 5.06161V5.0572ZM44.2258 10.9615C43.5114 10.9615 42.8707 10.8114 42.3222 10.5158C42.0502 10.3702 41.8059 10.1937 41.5939 9.98184C41.3819 9.77444 41.1975 9.53615 41.0408 9.27138C40.7319 8.73744 40.5752 8.11524 40.5752 7.43126C40.5752 6.74728 40.7319 6.11626 41.0408 5.58673C41.345 5.05719 41.7783 4.63798 42.3222 4.34674C42.8707 4.05108 43.5067 3.90105 44.2258 3.90105C44.9448 3.90105 45.5855 4.05108 46.134 4.34674C46.6825 4.63798 47.1158 5.05719 47.42 5.58673C47.7289 6.11626 47.8856 6.73846 47.8856 7.43126C47.8856 8.12407 47.7289 8.74627 47.42 9.2758C47.1158 9.80533 46.6779 10.2201 46.134 10.5158C45.5809 10.8114 44.9402 10.9615 44.2258 10.9615Z" fill="#0C0066"/>
<path d="M59.6298 7.21108C59.7035 9.85433 57.7953 12.0563 54.9698 12.0166C54.0802 12.0166 53.269 11.818 52.5638 11.4297C50.296 10.225 49.7014 7.17578 50.8906 5.07089C52.5361 2.07904 57.4358 2.13199 59.0582 5.07972C59.0813 5.11943 59.0721 5.16797 59.0398 5.20328L58.3714 5.84313C58.3161 5.89608 58.2286 5.87843 58.1963 5.81224C57.929 5.22975 57.5187 4.75317 56.9702 4.42222C55.9285 3.75589 54.2047 3.73383 53.1215 4.3472C51.3792 5.2474 50.9735 7.68325 51.8631 9.27626C52.4854 10.3883 53.6515 10.9708 54.9836 10.9619C56.7536 10.9928 58.2009 9.8455 58.4498 8.19072C58.459 8.12894 58.4083 8.07598 58.3438 8.07598H54.6379C54.578 8.07598 54.5319 8.03186 54.5319 7.97449V7.16254C54.5319 7.10518 54.578 7.06105 54.6379 7.06105H59.5238C59.5837 7.06105 59.6298 7.10518 59.6298 7.16254V7.2155V7.21108Z" fill="#0C0066"/>
<path d="M66.9835 11.756C66.9835 11.8133 66.9374 11.8575 66.8775 11.8575H61.3786C61.3187 11.8575 61.2726 11.8133 61.2726 11.756V3.11138C61.2726 3.05401 61.3187 3.00988 61.3786 3.00988H66.7392C66.7991 3.00988 66.8452 3.05401 66.8452 3.11138V3.91009C66.8452 3.96745 66.7991 4.01158 66.7392 4.01158H62.4802C62.4203 4.01158 62.3742 4.05571 62.3742 4.11307V6.74308C62.3742 6.80045 62.4203 6.84457 62.4802 6.84457H66.4073C66.4673 6.84457 66.5134 6.8887 66.5134 6.94607V7.73154C66.5134 7.78891 66.4673 7.83303 66.4073 7.83303H62.4802C62.4203 7.83303 62.3742 7.87716 62.3742 7.93453V10.7366C62.3742 10.794 62.4203 10.8381 62.4802 10.8381H66.8775C66.9374 10.8381 66.9835 10.8823 66.9835 10.9396V11.756Z" fill="#0C0066"/>
<path d="M75.0618 3.11138V3.92332C75.0618 3.98069 75.0157 4.02482 74.9558 4.02482H72.0888C72.0289 4.02482 71.9828 4.06895 71.9828 4.12631V11.756C71.9828 11.8133 71.9367 11.8575 71.8768 11.8575H71.0057C70.9457 11.8575 70.8996 11.8133 70.8996 11.756V4.12631C70.8996 4.06895 70.8535 4.02482 70.7936 4.02482H67.9359C67.8759 4.02482 67.8299 3.98069 67.8299 3.92332V3.11138C67.8299 3.05401 67.8759 3.00988 67.9359 3.00988H74.965C75.025 3.00988 75.071 3.05401 75.071 3.11138H75.0618Z" fill="#0C0066"/>
<path d="M83.5515 3.11138V11.756C83.5515 11.8133 83.5054 11.8575 83.4454 11.8575H82.5605C82.5005 11.8575 82.4545 11.8133 82.4545 11.756V7.961C82.4545 7.90364 82.4084 7.85951 82.3484 7.85951H77.6608C77.6009 7.85951 77.5548 7.90364 77.5548 7.961V11.756C77.5548 11.8133 77.5087 11.8575 77.4488 11.8575H76.5638C76.5039 11.8575 76.4578 11.8133 76.4578 11.756V3.11138C76.4578 3.05401 76.5039 3.00988 76.5638 3.00988H77.4488C77.5087 3.00988 77.5548 3.05401 77.5548 3.11138V6.73425C77.5548 6.79162 77.6009 6.83575 77.6608 6.83575H82.4545V3.11138C82.4545 3.05401 82.5005 3.00988 82.5605 3.00988H83.4454C83.5054 3.00988 83.5515 3.05401 83.5515 3.11138Z" fill="#0C0066"/>
<path d="M91.4244 11.756C91.4244 11.8133 91.3783 11.8575 91.3184 11.8575H85.8195C85.7596 11.8575 85.7135 11.8133 85.7135 11.756V3.11138C85.7135 3.05401 85.7596 3.00988 85.8195 3.00988H91.1801C91.24 3.00988 91.2861 3.05401 91.2861 3.11138V3.91009C91.2861 3.96745 91.24 4.01158 91.1801 4.01158H86.9211C86.8612 4.01158 86.8151 4.05571 86.8151 4.11307V6.74308C86.8151 6.80045 86.8612 6.84457 86.9211 6.84457H90.8482C90.9082 6.84457 90.9542 6.8887 90.9542 6.94607V7.73154C90.9542 7.78891 90.9082 7.83303 90.8482 7.83303H86.9211C86.8612 7.83303 86.8151 7.87716 86.8151 7.93453V10.7366C86.8151 10.794 86.8612 10.8381 86.9211 10.8381H91.3184C91.3783 10.8381 91.4244 10.8823 91.4244 10.9396V11.756Z" fill="#0C0066"/>
<path d="M41.3549 21.5734C41.4241 21.5734 41.4794 21.6351 41.4609 21.7013C40.6912 24.5211 37.2388 25.6816 34.6254 24.3887C31.4726 22.8398 31.4081 17.9725 34.4963 16.3266C36.7226 15.0954 39.9491 15.8279 41.083 18.1093C41.1014 18.149 41.0922 18.1976 41.0599 18.2285L40.3962 18.8639C40.3409 18.9169 40.2487 18.8992 40.221 18.8286C39.4789 16.8958 36.8747 16.278 35.0632 17.24C32.754 18.4359 32.7586 22.2176 35.0632 23.4135C36.9484 24.4108 39.6633 23.7091 40.3224 21.6484C40.3363 21.6042 40.3778 21.5734 40.4238 21.5734H41.3549Z" fill="#0C0066"/>
<path d="M56.9881 24.6493C56.9881 24.7066 56.942 24.7508 56.882 24.7508H51.3832C51.3232 24.7508 51.2771 24.7066 51.2771 24.6493V16.0047C51.2771 15.9473 51.3232 15.9032 51.3832 15.9032H56.7438C56.8037 15.9032 56.8498 15.9473 56.8498 16.0047V16.8034C56.8498 16.8607 56.8037 16.9049 56.7438 16.9049H52.4848C52.4249 16.9049 52.3788 16.949 52.3788 17.0064V19.6364C52.3788 19.6937 52.4249 19.7379 52.4848 19.7379H56.4119C56.4718 19.7379 56.5179 19.782 56.5179 19.8394V20.6248C56.5179 20.6822 56.4718 20.7263 56.4119 20.7263H52.4848C52.4249 20.7263 52.3788 20.7704 52.3788 20.8278V23.6299C52.3788 23.6873 52.4249 23.7314 52.4848 23.7314H56.882C56.942 23.7314 56.9881 23.7755 56.9881 23.8329V24.6493Z" fill="#0C0066"/>
<path d="M71.254 16.0359L68.2857 24.6805C68.2718 24.7247 68.2303 24.7511 68.1842 24.7511H67.3822C67.3362 24.7511 67.2947 24.7247 67.2808 24.6849L64.6674 17.8893C64.6305 17.801 64.5014 17.801 64.4646 17.8893L61.8603 24.6849C61.8465 24.7247 61.805 24.7511 61.7589 24.7511H60.9431C60.897 24.7511 60.8555 24.7202 60.8417 24.6805L57.8871 16.0359C57.8641 15.9697 57.9148 15.8991 57.9885 15.8991H58.9196C58.9657 15.8991 59.0072 15.93 59.021 15.9697L60.3577 19.8971L61.2888 22.6727C61.321 22.7654 61.4593 22.7698 61.4916 22.6727L62.5609 19.8883L64.0497 15.9609C64.0635 15.9212 64.105 15.8947 64.1511 15.8947H64.967C65.0131 15.8947 65.0546 15.9212 65.0684 15.9609L67.6404 22.686C67.6772 22.7786 67.8109 22.7742 67.8432 22.686L68.7881 19.8971L70.1109 15.9697C70.1248 15.9256 70.1663 15.8991 70.2123 15.8991H71.1434C71.2172 15.8991 71.2679 15.9697 71.2448 16.0359H71.254Z" fill="#0C0066"/>
<path d="M47.5823 21.556C47.5408 21.4987 47.5685 21.4148 47.6422 21.3972C48.1999 21.2427 48.6609 20.9647 49.0112 20.5632C49.4444 20.0733 49.6611 19.4555 49.6611 18.7186C49.6611 18.1582 49.532 17.6596 49.2693 17.2359C49.0066 16.8123 48.6378 16.4813 48.1677 16.2475C47.7021 16.018 47.149 15.8989 46.5314 15.8989H44.4065C44.3788 15.8989 44.3512 15.9077 44.3281 15.9253L43.0928 17.1035C43.0928 17.1035 43.0606 17.1477 43.0606 17.1786L43.0514 24.645C43.0514 24.7023 43.0974 24.7465 43.1574 24.7465H44.0424C44.1023 24.7465 44.1484 24.7023 44.1484 24.645V21.6443C44.1484 21.5869 44.1991 21.5428 44.259 21.5428H46.158C46.1949 21.5428 46.2272 21.5604 46.2456 21.5869L48.5733 24.7111C48.5917 24.7376 48.624 24.7553 48.6609 24.7553H49.7256C49.8132 24.7553 49.8639 24.6626 49.8132 24.592L47.5685 21.556H47.5823ZM44.1668 20.4219V17.0197C44.1668 16.9623 44.2175 16.9182 44.2774 16.9182H46.453C47.1121 16.9182 47.633 17.0815 48.0017 17.408C48.3705 17.7302 48.5456 18.1582 48.5456 18.723C48.5456 19.2879 48.3659 19.7247 47.9971 20.0469C47.6284 20.369 47.1121 20.5323 46.4484 20.5278H44.2728C44.2129 20.5278 44.1668 20.4793 44.1668 20.4219Z" fill="#0C0066"/>
<path d="M25.3142 26H1.84372C0.825063 26 0 25.2101 0 24.2349V1.76511C0 0.789885 0.825063 0 1.84372 0H25.3142C26.3329 0 27.1579 0.789885 27.1579 1.76511V24.2349C27.1579 25.2101 26.3329 26 25.3142 26Z" fill="#804EE1"/>
<path d="M13.9255 12.0029C12.8377 11.7249 11.7222 12.3427 11.4319 13.3797C10.8373 15.9038 14.5616 16.857 15.3636 14.3902C15.654 13.3488 15.0087 12.2809 13.9255 12.0029Z" fill="white"/>
<path d="M14.144 11.2203C14.3192 11.2689 14.5128 11.1674 14.5589 10.9909L15.3931 8.00341C15.4392 7.84455 15.5775 7.72541 15.7481 7.69452C16.3703 7.57979 16.8405 7.05025 16.8405 6.41923C16.7713 4.69825 14.1993 4.69825 14.1256 6.41923C14.1256 6.80755 14.3054 7.15616 14.5865 7.39445C14.7202 7.50477 14.7801 7.67687 14.734 7.84014L13.8997 10.8232C13.849 10.9953 13.9597 11.1762 14.1394 11.2203H14.144Z" fill="white"/>
<path d="M11.361 11.4774L9.42506 9.62401C9.29139 9.49604 9.25452 9.30188 9.33287 9.1386C10.1349 7.46617 7.92704 5.82462 6.41058 7.2014C5.63622 7.92068 5.74224 9.16508 6.55808 9.78287C6.70097 9.89319 6.76089 10.0741 6.71019 10.2418L5.63161 14.0897C5.58552 14.2486 5.44724 14.3721 5.28131 14.403C4.41937 14.5707 3.82016 15.44 4.06906 16.2829C4.5807 17.9332 6.94526 17.6552 7.1619 16.1019C7.18495 15.9298 7.31861 15.7886 7.49377 15.7401L10.37 15.0032C10.5497 14.9546 10.6604 14.7781 10.6096 14.606C10.5589 14.4339 10.3746 14.328 10.1948 14.3766L7.49377 15.0694C7.22643 15.14 6.94526 15.0517 6.75628 14.8575C6.75167 14.8487 6.74245 14.8443 6.73784 14.8355C6.55808 14.659 6.48433 14.403 6.55347 14.1603L7.5122 10.736C7.59978 10.4227 7.85329 10.18 8.18055 10.0918C8.18977 10.0918 8.19899 10.0873 8.20821 10.0829C8.54929 9.98585 8.92265 10.0653 9.17616 10.308L10.8816 11.9407C10.9461 12.0025 11.0337 12.0378 11.1213 12.0378C11.4163 12.0422 11.5776 11.6848 11.361 11.4818V11.4774Z" fill="white"/>
<path d="M22.9388 11.4382C22.3119 9.42152 19.279 9.9334 19.3896 12.0118L16.4213 12.7752C16.2415 12.8238 16.1309 13.0003 16.1816 13.1724C16.2277 13.3489 16.4213 13.4504 16.5964 13.4018L18.9241 12.8061C19.2698 12.7179 19.6339 12.8282 19.8782 13.0753C19.8875 13.0841 19.8921 13.0885 19.9013 13.0974C20.1364 13.3312 20.2331 13.6622 20.1456 13.9755L19.2007 17.3468C19.1269 17.616 18.9103 17.8234 18.6291 17.9073C18.6291 17.9073 18.6245 17.9073 18.6199 17.9073C18.3249 17.9955 18.0069 17.9161 17.7902 17.7043L15.8774 15.873C15.7667 15.7671 15.587 15.7671 15.4764 15.873C15.3657 15.9789 15.3657 16.151 15.4764 16.2569L17.8041 18.4853C16.7531 20.0166 18.8181 21.689 20.2239 20.4181C20.8785 19.8092 20.8185 18.7677 20.1548 18.2117C20.0257 18.1014 19.9658 17.9337 20.0119 17.7705L21.0905 13.9225C21.1366 13.7549 21.2841 13.6225 21.4638 13.596C22.4917 13.4504 23.2338 12.4266 22.9388 11.4337V11.4382Z" fill="white"/>
</svg>
