<svg width="100" height="25" viewBox="0 0 100 25" fill="none" xmlns="http://www.w3.org/2000/svg">
<path d="M97.7351 8.32381C97.6936 8.26865 97.7213 8.18803 97.795 8.17106C98.3528 8.02255 98.8137 7.75524 99.164 7.36913C99.5927 6.89815 99.8139 6.29988 99.8139 5.59553C99.8139 5.05243 99.6802 4.5772 99.4221 4.16987C99.1594 3.76254 98.7906 3.44431 98.3205 3.21943C97.8549 2.99879 97.3018 2.88423 96.6842 2.88423H94.5593C94.5317 2.88423 94.504 2.89272 94.4809 2.91393L93.2503 4.04682C93.2503 4.04682 93.218 4.08926 93.218 4.11896V11.3024C93.218 11.3576 93.2641 11.4 93.324 11.4H94.209C94.2689 11.4 94.315 11.3576 94.315 11.3024V8.41716C94.315 8.362 94.3611 8.31957 94.421 8.31957H96.3201C96.3569 8.31957 96.3892 8.33654 96.4076 8.362L98.7399 11.3661C98.7584 11.3915 98.7906 11.4085 98.8275 11.4085H99.8923C99.9798 11.4085 100.031 11.3194 99.9798 11.2515L97.7305 8.3323L97.7351 8.32381ZM94.3196 3.97045C94.3196 3.91529 94.3657 3.87286 94.4256 3.87286H96.6012C97.2604 3.87286 97.7812 4.02985 98.1499 4.33959C98.5187 4.64934 98.6985 5.06091 98.6985 5.60402C98.6985 6.14713 98.5187 6.56719 98.1499 6.88118C97.7812 7.19092 97.2604 7.34791 96.6012 7.34791H94.4256C94.3657 7.34791 94.3196 7.30548 94.3196 7.25032V3.97045Z" fill="white"/>
<path d="M39.1327 2.99171V3.77243C39.1327 3.82759 39.0867 3.87002 39.0267 3.87002H36.1598C36.0998 3.87002 36.0537 3.91245 36.0537 3.96761V11.3038C36.0537 11.359 36.0076 11.4014 35.9477 11.4014H35.0766C35.0166 11.4014 34.9706 11.359 34.9706 11.3038V3.96761C34.9706 3.91245 34.9245 3.87002 34.8645 3.87002H32.0068C31.9469 3.87002 31.9008 3.82759 31.9008 3.77243V2.99171C31.9008 2.93655 31.9469 2.89412 32.0068 2.89412H39.0359C39.0959 2.89412 39.142 2.93655 39.142 2.99171H39.1327Z" fill="white"/>
<path d="M48.388 4.86269C47.987 4.19653 47.42 3.67039 46.701 3.29701C45.9819 2.92786 45.1523 2.73692 44.2258 2.73692C43.2993 2.73692 42.4835 2.92362 41.7644 3.29701C41.0454 3.67039 40.4738 4.19653 40.0728 4.86269C39.6718 5.52884 39.4644 6.29684 39.4644 7.14969C39.4644 8.00254 39.6672 8.77053 40.0728 9.43244C40.4784 10.0986 41.0454 10.6247 41.7644 10.9981C42.4835 11.3673 43.3085 11.5582 44.2258 11.5582C45.143 11.5582 45.9819 11.3715 46.701 10.9981C47.42 10.6247 47.987 10.0986 48.388 9.43244C48.7844 8.76629 48.9872 7.9983 48.9872 7.14969C48.9872 6.30108 48.7844 5.52884 48.388 4.86693V4.86269ZM44.2258 10.5399C43.5114 10.5399 42.8707 10.3956 42.3222 10.1113C42.0502 9.97131 41.8059 9.80159 41.5939 9.59792C41.3819 9.3985 41.1975 9.16938 41.0408 8.91479C40.7319 8.40138 40.5752 7.80311 40.5752 7.14544C40.5752 6.48777 40.7319 5.88102 41.0408 5.37185C41.345 4.86269 41.7783 4.4596 42.3222 4.17956C42.8707 3.89527 43.5067 3.75101 44.2258 3.75101C44.9448 3.75101 45.5855 3.89527 46.134 4.17956C46.6825 4.4596 47.1158 4.86269 47.42 5.37185C47.7289 5.88102 47.8856 6.47929 47.8856 7.14544C47.8856 7.8116 47.7289 8.40987 47.42 8.91903C47.1158 9.4282 46.6779 9.82705 46.134 10.1113C45.5809 10.3956 44.9402 10.5399 44.2258 10.5399Z" fill="white"/>
<path d="M59.6298 6.93373C59.7035 9.47532 57.7953 11.5926 54.9698 11.5544C54.0802 11.5544 53.269 11.3635 52.5638 10.9901C50.296 9.83173 49.7014 6.89979 50.8906 4.87586C52.5361 1.99908 57.4358 2.04999 59.0582 4.88435C59.0813 4.92253 59.0721 4.96921 59.0398 5.00315L58.3714 5.61839C58.3161 5.66931 58.2286 5.65234 58.1963 5.58869C57.929 5.02861 57.5187 4.57036 56.9702 4.25213C55.9285 3.61143 54.2047 3.59022 53.1215 4.18C51.3792 5.04558 50.9735 7.38774 51.8631 8.91948C52.4854 9.98872 53.6515 10.5488 54.9836 10.5403C56.7536 10.57 58.2009 9.46683 58.4498 7.87569C58.459 7.81629 58.4083 7.76537 58.3438 7.76537H54.6379C54.578 7.76537 54.5319 7.72294 54.5319 7.66778V6.88706C54.5319 6.8319 54.578 6.78947 54.6379 6.78947H59.5238C59.5837 6.78947 59.6298 6.8319 59.6298 6.88706V6.93798V6.93373Z" fill="white"/>
<path d="M66.9835 11.3038C66.9835 11.359 66.9374 11.4014 66.8775 11.4014H61.3786C61.3187 11.4014 61.2726 11.359 61.2726 11.3038V2.99171C61.2726 2.93655 61.3187 2.89412 61.3786 2.89412H66.7392C66.7991 2.89412 66.8452 2.93655 66.8452 2.99171V3.7597C66.8452 3.81486 66.7991 3.85729 66.7392 3.85729H62.4802C62.4203 3.85729 62.3742 3.89972 62.3742 3.95488V6.48373C62.3742 6.53889 62.4203 6.58132 62.4802 6.58132H66.4073C66.4673 6.58132 66.5134 6.62375 66.5134 6.67891V7.43417C66.5134 7.48933 66.4673 7.53176 66.4073 7.53176H62.4802C62.4203 7.53176 62.3742 7.57419 62.3742 7.62935V10.3237C62.3742 10.3788 62.4203 10.4213 62.4802 10.4213H66.8775C66.9374 10.4213 66.9835 10.4637 66.9835 10.5189V11.3038Z" fill="white"/>
<path d="M75.0618 2.99171V3.77243C75.0618 3.82759 75.0157 3.87002 74.9558 3.87002H72.0888C72.0289 3.87002 71.9828 3.91245 71.9828 3.96761V11.3038C71.9828 11.359 71.9367 11.4014 71.8768 11.4014H71.0057C70.9457 11.4014 70.8996 11.359 70.8996 11.3038V3.96761C70.8996 3.91245 70.8535 3.87002 70.7936 3.87002H67.9359C67.8759 3.87002 67.8299 3.82759 67.8299 3.77243V2.99171C67.8299 2.93655 67.8759 2.89412 67.9359 2.89412H74.965C75.025 2.89412 75.071 2.93655 75.071 2.99171H75.0618Z" fill="white"/>
<path d="M83.5515 2.99171V11.3038C83.5515 11.359 83.5054 11.4014 83.4454 11.4014H82.5605C82.5005 11.4014 82.4545 11.359 82.4545 11.3038V7.65481C82.4545 7.59965 82.4084 7.55722 82.3484 7.55722H77.6608C77.6009 7.55722 77.5548 7.59965 77.5548 7.65481V11.3038C77.5548 11.359 77.5087 11.4014 77.4488 11.4014H76.5638C76.5039 11.4014 76.4578 11.359 76.4578 11.3038V2.99171C76.4578 2.93655 76.5039 2.89412 76.5638 2.89412H77.4488C77.5087 2.89412 77.5548 2.93655 77.5548 2.99171V6.47524C77.5548 6.5304 77.6009 6.57283 77.6608 6.57283H82.4545V2.99171C82.4545 2.93655 82.5005 2.89412 82.5605 2.89412H83.4454C83.5054 2.89412 83.5515 2.93655 83.5515 2.99171Z" fill="white"/>
<path d="M91.4244 11.3038C91.4244 11.359 91.3783 11.4014 91.3184 11.4014H85.8195C85.7596 11.4014 85.7135 11.359 85.7135 11.3038V2.99171C85.7135 2.93655 85.7596 2.89412 85.8195 2.89412H91.1801C91.24 2.89412 91.2861 2.93655 91.2861 2.99171V3.7597C91.2861 3.81486 91.24 3.85729 91.1801 3.85729H86.9211C86.8612 3.85729 86.8151 3.89972 86.8151 3.95488V6.48373C86.8151 6.53889 86.8612 6.58132 86.9211 6.58132H90.8482C90.9082 6.58132 90.9542 6.62375 90.9542 6.67891V7.43417C90.9542 7.48933 90.9082 7.53176 90.8482 7.53176H86.9211C86.8612 7.53176 86.8151 7.57419 86.8151 7.62935V10.3237C86.8151 10.3788 86.8612 10.4213 86.9211 10.4213H91.3184C91.3783 10.4213 91.4244 10.4637 91.4244 10.5189V11.3038Z" fill="white"/>
<path d="M41.3549 20.7436C41.4241 20.7436 41.4794 20.803 41.4609 20.8667C40.6912 23.578 37.2388 24.6939 34.6254 23.4507C31.4726 21.9614 31.4081 17.2813 34.4963 15.6986C36.7226 14.5148 39.9491 15.2192 41.083 17.4128C41.1014 17.451 41.0922 17.4977 41.0599 17.5274L40.3962 18.1384C40.3409 18.1893 40.2487 18.1723 40.221 18.1044C39.4789 16.246 36.8747 15.652 35.0632 16.5769C32.754 17.7268 32.7586 21.3631 35.0632 22.513C36.9484 23.4719 39.6633 22.7972 40.3224 20.8157C40.3363 20.7733 40.3778 20.7436 40.4238 20.7436H41.3549Z" fill="white"/>
<path d="M56.9881 23.7012C56.9881 23.7564 56.942 23.7988 56.882 23.7988H51.3832C51.3232 23.7988 51.2771 23.7564 51.2771 23.7012V15.3891C51.2771 15.3339 51.3232 15.2915 51.3832 15.2915H56.7438C56.8037 15.2915 56.8498 15.3339 56.8498 15.3891V16.1571C56.8498 16.2123 56.8037 16.2547 56.7438 16.2547H52.4848C52.4249 16.2547 52.3788 16.2971 52.3788 16.3523V18.8811C52.3788 18.9363 52.4249 18.9787 52.4848 18.9787H56.4119C56.4718 18.9787 56.5179 19.0211 56.5179 19.0763V19.8316C56.5179 19.8867 56.4718 19.9292 56.4119 19.9292H52.4848C52.4249 19.9292 52.3788 19.9716 52.3788 20.0267V22.7211C52.3788 22.7762 52.4249 22.8187 52.4848 22.8187H56.882C56.942 22.8187 56.9881 22.8611 56.9881 22.9163V23.7012Z" fill="white"/>
<path d="M71.254 15.4192L68.2857 23.7313C68.2718 23.7737 68.2303 23.7992 68.1842 23.7992H67.3822C67.3362 23.7992 67.2947 23.7737 67.2808 23.7355L64.6674 17.2012C64.6305 17.1164 64.5014 17.1164 64.4646 17.2012L61.8603 23.7355C61.8465 23.7737 61.805 23.7992 61.7589 23.7992H60.9431C60.897 23.7992 60.8555 23.7695 60.8417 23.7313L57.8871 15.4192C57.8641 15.3555 57.9148 15.2876 57.9885 15.2876H58.9196C58.9657 15.2876 59.0072 15.3173 59.021 15.3555L60.3577 19.1318L61.2888 21.8007C61.321 21.8898 61.4593 21.894 61.4916 21.8007L62.5609 19.1233L64.0497 15.347C64.0635 15.3088 64.105 15.2834 64.1511 15.2834H64.967C65.0131 15.2834 65.0546 15.3088 65.0684 15.347L67.6404 21.8134C67.6772 21.9025 67.8109 21.8983 67.8432 21.8134L68.7881 19.1318L70.1109 15.3555C70.1248 15.3131 70.1663 15.2876 70.2123 15.2876H71.1434C71.2172 15.2876 71.2679 15.3555 71.2448 15.4192H71.254Z" fill="white"/>
<path d="M47.5823 20.7269C47.5408 20.6718 47.5685 20.5912 47.6422 20.5742C48.1999 20.4257 48.6609 20.1584 49.0112 19.7723C49.4444 19.3013 49.6611 18.7073 49.6611 17.9987C49.6611 17.4598 49.532 16.9803 49.2693 16.573C49.0066 16.1657 48.6378 15.8474 48.1677 15.6226C47.7021 15.4019 47.149 15.2874 46.5314 15.2874H44.4065C44.3788 15.2874 44.3512 15.2959 44.3281 15.3128L43.0928 16.4457C43.0928 16.4457 43.0606 16.4881 43.0606 16.5178L43.0514 23.6971C43.0514 23.7522 43.0974 23.7947 43.1574 23.7947H44.0424C44.1023 23.7947 44.1484 23.7522 44.1484 23.6971V20.8118C44.1484 20.7566 44.1991 20.7142 44.259 20.7142H46.158C46.1949 20.7142 46.2272 20.7312 46.2456 20.7566L48.5733 23.7607C48.5917 23.7862 48.624 23.8032 48.6609 23.8032H49.7256C49.8132 23.8032 49.8639 23.714 49.8132 23.6462L47.5685 20.7269H47.5823ZM44.1668 19.6365V16.3651C44.1668 16.3099 44.2175 16.2675 44.2774 16.2675H46.453C47.1121 16.2675 47.633 16.4245 48.0017 16.7385C48.3705 17.0482 48.5456 17.4598 48.5456 18.0029C48.5456 18.546 48.3659 18.9661 47.9971 19.2758C47.6284 19.5856 47.1121 19.7426 46.4484 19.7383H44.2728C44.2129 19.7383 44.1668 19.6916 44.1668 19.6365Z" fill="white"/>
<path d="M25.3142 25H1.84372C0.825063 25 0 24.2405 0 23.3028V1.69722C0 0.759504 0.825063 0 1.84372 0H25.3142C26.3329 0 27.1579 0.759504 27.1579 1.69722V23.3028C27.1579 24.2405 26.3329 25 25.3142 25Z" fill="#804EE1"/>
<path d="M13.9255 11.5413C12.8377 11.274 11.7222 11.868 11.4319 12.8651C10.8373 15.2921 14.5616 16.2086 15.3636 13.8368C15.654 12.8354 15.0087 11.8086 13.9255 11.5413Z" fill="white"/>
<path d="M14.144 10.7888C14.3192 10.8354 14.5128 10.7378 14.5589 10.5681L15.3931 7.69559C15.4392 7.54284 15.5775 7.42828 15.7481 7.39857C16.3703 7.28826 16.8405 6.77909 16.8405 6.17234C16.7713 4.51755 14.1993 4.51755 14.1256 6.17234C14.1256 6.54572 14.3054 6.88092 14.5865 7.11005C14.7202 7.21612 14.7801 7.3816 14.734 7.53859L13.8997 10.4069C13.849 10.5724 13.9597 10.7463 14.1394 10.7888H14.144Z" fill="white"/>
<path d="M11.361 11.0359L9.42506 9.25385C9.29139 9.13081 9.25452 8.94411 9.33287 8.78712C10.1349 7.17901 7.92704 5.60059 6.41058 6.92442C5.63622 7.61604 5.74224 8.81258 6.55808 9.4066C6.70097 9.51268 6.76089 9.68664 6.71019 9.84788L5.63161 13.5478C5.58552 13.7006 5.44724 13.8194 5.28131 13.8491C4.41937 14.0103 3.82016 14.8462 4.06906 15.6566C4.5807 17.2435 6.94526 16.9762 7.1619 15.4826C7.18495 15.3172 7.31861 15.1814 7.49377 15.1347L10.37 14.4261C10.5497 14.3794 10.6604 14.2097 10.6096 14.0442C10.5589 13.8788 10.3746 13.7769 10.1948 13.8236L7.49377 14.4898C7.22643 14.5577 6.94526 14.4728 6.75628 14.2861C6.75167 14.2776 6.74245 14.2734 6.73784 14.2649C6.55808 14.0952 6.48433 13.8491 6.55347 13.6157L7.5122 10.3231C7.59978 10.0218 7.85329 9.78848 8.18055 9.70362C8.18977 9.70362 8.19899 9.69937 8.20821 9.69513C8.54929 9.60178 8.92265 9.67816 9.17616 9.91152L10.8816 11.4815C10.9461 11.5409 11.0337 11.5748 11.1213 11.5748C11.4163 11.579 11.5776 11.2354 11.361 11.0402V11.0359Z" fill="white"/>
<path d="M22.9388 10.9982C22.3119 9.05915 19.279 9.55134 19.3896 11.5498L16.4213 12.2839C16.2415 12.3305 16.1309 12.5003 16.1816 12.6657C16.2277 12.8355 16.4213 12.9331 16.5964 12.8864L18.9241 12.3136C19.2698 12.2287 19.6339 12.3348 19.8782 12.5724C19.8875 12.5809 19.8921 12.5851 19.9013 12.5936C20.1364 12.8185 20.2331 13.1367 20.1456 13.438L19.2007 16.6797C19.1269 16.9385 18.9103 17.1379 18.6291 17.2185C18.6291 17.2185 18.6245 17.2185 18.6199 17.2185C18.3249 17.3034 18.0069 17.227 17.7902 17.0233L15.8774 15.2625C15.7667 15.1606 15.587 15.1606 15.4764 15.2625C15.3657 15.3643 15.3657 15.5298 15.4764 15.6316L17.8041 17.7744C16.7531 19.2467 18.8181 20.8548 20.2239 19.6328C20.8785 19.0473 20.8185 18.0459 20.1548 17.5113C20.0257 17.4052 19.9658 17.244 20.0119 17.087L21.0905 13.3871C21.1366 13.2258 21.2841 13.0985 21.4638 13.0731C22.4917 12.933 23.2338 11.9487 22.9388 10.994V10.9982Z" fill="white"/>
</svg>
