<svg width="30" height="25" viewBox="0 0 30 25" fill="none" xmlns="http://www.w3.org/2000/svg">
<path fill-rule="evenodd" clip-rule="evenodd" d="M2.06234 10.7633C10.1154 7.23524 15.4854 4.90931 18.1722 3.78554C25.8438 0.576945 27.4379 0.0195774 28.4769 0.0011728C28.7054 -0.00287509 29.2163 0.0540732 29.5473 0.324127C29.8268 0.552155 29.9037 0.860188 29.9405 1.07638C29.9773 1.29258 30.0231 1.78508 29.9867 2.1699C29.5709 6.56223 27.7721 17.2212 26.857 22.1407C26.4697 24.2223 25.7073 24.9203 24.9691 24.9886C23.3649 25.137 22.1467 23.9225 20.593 22.8984C18.1617 21.2958 16.7882 20.2982 14.4282 18.7343C11.7008 16.927 13.4688 15.9337 15.0232 14.3103C15.4299 13.8855 22.4981 7.42078 22.6349 6.83433C22.652 6.76098 22.6679 6.48759 22.5063 6.34322C22.3448 6.19886 22.1064 6.24823 21.9344 6.28749C21.6905 6.34314 17.8065 8.9246 10.2823 14.0319C9.17983 14.7931 8.18124 15.164 7.28655 15.1446C6.30022 15.1232 4.40291 14.5838 2.99246 14.1228C1.26249 13.5573 -0.112459 13.2583 0.00726778 12.298C0.0696291 11.7978 0.754654 11.2862 2.06234 10.7633Z" fill="#D6D6D6"/>
</svg>
