<svg width="30" height="25" viewBox="0 0 30 25" fill="none" xmlns="http://www.w3.org/2000/svg">
<path fill-rule="evenodd" clip-rule="evenodd" d="M30.001 2.96013C28.8981 3.46255 27.7111 3.80091 26.4662 3.95368C27.7371 3.17237 28.7131 1.9358 29.172 0.462379C27.9841 1.18627 26.6652 1.71023 25.2643 1.99425C24.1414 0.767936 22.5405 0.000976562 20.7716 0.000976562C17.3728 0.000976562 14.617 2.82683 14.617 6.31198C14.617 6.8062 14.672 7.28811 14.777 7.75054C9.66133 7.48805 5.12664 4.97493 2.09084 1.15654C1.56087 2.08858 1.25789 3.17238 1.25789 4.32897C1.25789 6.51809 2.34282 8.44984 3.99571 9.58182C2.98578 9.54901 2.03784 9.26499 1.20689 8.7923V8.87125C1.20689 11.9299 3.32975 14.4799 6.14357 15.0613C5.6276 15.2048 5.08364 15.2827 4.52267 15.2827C4.1257 15.2827 3.73973 15.2428 3.36375 15.1689C4.1467 17.6759 6.42055 19.501 9.11337 19.5523C7.00751 21.2441 4.35368 22.2541 1.46988 22.2541C0.97191 22.2541 0.481945 22.2243 0.000976562 22.1649C2.7248 23.9551 5.95958 25.001 9.43535 25.001C20.7556 25.001 26.9462 15.3842 26.9462 7.0451C26.9462 6.77133 26.9412 6.4986 26.9282 6.22894C28.1321 5.33688 29.176 4.22541 30.001 2.96013Z" fill="#D6D6D6"/>
</svg>
