<svg width="30" height="30" viewBox="0 0 30 30" fill="none" xmlns="http://www.w3.org/2000/svg">
<path fill-rule="evenodd" clip-rule="evenodd" d="M29 5.84079C27.9706 6.32311 26.8628 6.64793 25.7009 6.7946C26.8871 6.04454 27.7979 4.85743 28.2263 3.44295C27.1176 4.13789 25.8866 4.64088 24.5791 4.91354C23.531 3.73628 22.0369 3 20.3859 3C17.2137 3 14.6416 5.71282 14.6416 9.05857C14.6416 9.53301 14.693 9.99565 14.7909 10.4396C10.0163 10.1876 5.78395 7.775 2.95054 4.10934C2.4559 5.0041 2.17312 6.04455 2.17312 7.15488C2.17312 9.25643 3.18572 11.1109 4.72842 12.1976C3.78581 12.1661 2.90107 11.8934 2.12552 11.4397V11.5155C2.12552 14.4517 4.10686 16.8998 6.73308 17.4579C6.25151 17.5957 5.74382 17.6705 5.22025 17.6705C4.84974 17.6705 4.4895 17.6321 4.13859 17.5612C4.86934 19.9679 6.9916 21.72 9.5049 21.7693C7.53943 23.3934 5.06253 24.363 2.37097 24.363C1.9062 24.363 1.4489 24.3344 1 24.2773C3.54223 25.996 6.56136 27 9.80541 27C20.371 27 26.1489 17.7679 26.1489 9.76236C26.1489 9.49954 26.1442 9.23772 26.1321 8.97884C27.2557 8.12247 28.2301 7.05545 29 5.84079Z" fill="#222222"/>
</svg>
