<svg width="210" height="140" viewBox="0 0 210 140" fill="none" xmlns="http://www.w3.org/2000/svg">
<path d="M22.8373 61.4803C22.2032 60.3745 22.5795 58.9605 23.6777 58.322L32.6259 53.1197C33.7242 52.4812 35.1284 52.8601 35.7625 53.966C36.3966 55.0719 36.0203 56.486 34.9221 57.1244L25.9738 62.3267C24.8756 62.9651 23.4713 62.5862 22.8373 61.4803Z" fill="#37D5C7"/>
<path d="M29.1567 89.8437C28.5226 88.7378 28.8988 87.3238 29.997 86.6853L38.9453 81.483C40.0435 80.8445 41.4476 81.2234 42.0818 82.3293C42.7159 83.4352 42.3396 84.8493 41.2414 85.4876L32.2931 90.6901C31.1949 91.3285 29.7907 90.9496 29.1567 89.8437Z" fill="#37D5C7"/>
<path d="M33.7035 71.1807C33.0695 70.0748 33.4457 68.6608 34.544 68.0223L46.972 60.797C48.0702 60.1585 49.4744 60.5374 50.1085 61.6433C50.7424 62.7491 50.3663 64.1632 49.2682 64.8016L36.84 72.0269C35.7418 72.6655 34.3375 72.2866 33.7035 71.1807Z" fill="#37D5C7"/>
<path d="M15.308 81.8741C14.6739 80.7683 15.0502 79.3541 16.1484 78.7156L29.5708 70.9123C30.669 70.2737 32.0733 70.6527 32.7072 71.7585C33.3414 72.8644 32.965 74.2785 31.8669 74.9169L18.4445 82.7204C17.3463 83.3588 15.9421 82.98 15.308 81.8741Z" fill="#37D5C7"/>
<path d="M35.7231 61.9952C35.0889 60.8893 35.4653 59.4752 36.5634 58.8368L39.0491 57.3917C40.1474 56.7532 41.5516 57.1321 42.1856 58.238C42.8198 59.3438 42.4434 60.758 41.3452 61.3963L38.8596 62.8415C37.7614 63.48 36.3571 63.1011 35.7231 61.9952Z" fill="#37D5C7"/>
<path d="M43.0767 81.749C42.4425 80.6432 42.8187 79.2291 43.917 78.5907L46.4027 77.1456C47.5008 76.5072 48.9052 76.886 49.5391 77.9919C50.1732 79.0977 49.7969 80.5118 48.6987 81.1503L46.2131 82.5953C45.1149 83.2338 43.7106 82.8549 43.0767 81.749Z" fill="#37D5C7"/>
<path d="M22.2328 85.8584C21.5988 84.7526 21.975 83.3386 23.0733 82.7L25.5589 81.255C26.6571 80.6164 28.0613 80.9954 28.6953 82.1012C29.3295 83.2071 28.9531 84.6213 27.855 85.2597L25.3694 86.7048C24.2711 87.3432 22.8669 86.9643 22.2328 85.8584Z" fill="#37D5C7"/>
<path d="M15.3812 65.8131C14.7472 64.7071 15.1235 63.2932 16.2217 62.6546L18.7073 61.2096C19.8055 60.5711 21.2098 60.95 21.8438 62.0559C22.4779 63.1618 22.1016 64.5758 21.0034 65.2143L18.5178 66.6594C17.4196 67.2979 16.0153 66.9188 15.3812 65.8131Z" fill="#37D5C7"/>
<path d="M15.3441 73.843C14.7101 72.7371 15.0864 71.3232 16.1846 70.6846L31.5954 61.7252C32.6936 61.0867 34.0978 61.4657 34.7319 62.5714C35.3658 63.6773 34.9897 65.0913 33.8916 65.7299L18.4807 74.6894C17.3825 75.3278 15.9782 74.9489 15.3441 73.843Z" fill="#37D5C7"/>
<path d="M29.6879 81.5243C29.0538 80.4184 29.4302 79.0042 30.5283 78.3658L45.9392 69.4063C47.0372 68.7679 48.4416 69.1468 49.0756 70.2527C49.7096 71.3585 49.3333 72.7725 48.2353 73.411L32.8244 82.3705C31.7262 83.0089 30.3219 82.63 29.6879 81.5243Z" fill="#37D5C7"/>
<path fill-rule="evenodd" clip-rule="evenodd" d="M90.5162 83.952C88.6077 82.814 87.0969 81.2459 85.991 79.2583L85.9868 79.2511C84.906 77.253 84.374 74.9827 84.374 72.4595C84.374 69.9148 84.8734 67.6477 85.8939 65.6788L85.8957 65.6752C86.9398 63.6886 88.3751 62.1169 90.198 60.9746C92.0328 59.825 94.1364 59.2593 96.4865 59.2593C98.8026 59.2593 100.849 59.8076 102.601 60.9299C104.37 62.0151 105.736 63.5328 106.693 65.4665C107.649 67.3999 108.119 69.5869 108.119 72.0115C108.119 72.6483 107.919 73.2236 107.483 73.6713L107.471 73.6843L107.457 73.6966C107.018 74.1024 106.467 74.2795 105.867 74.2795H89.0246C89.1885 75.255 89.49 76.145 89.9253 76.9544C90.6523 78.2521 91.629 79.267 92.8613 80.0098C94.0822 80.7456 95.5017 81.1233 97.141 81.1233C98.1092 81.1233 99.082 80.958 100.062 80.6233C101.081 80.2549 101.855 79.8154 102.411 79.3222L102.425 79.31C102.858 78.9457 103.365 78.7542 103.923 78.7488C104.474 78.7135 104.988 78.8609 105.42 79.2157L105.439 79.2312L105.457 79.2479C105.929 79.6959 106.235 80.2507 106.243 80.9023C106.281 81.5611 106.008 82.1198 105.52 82.5383C104.487 83.4377 103.193 84.1758 101.655 84.7642L101.644 84.7685C100.098 85.3287 98.596 85.6147 97.141 85.6147C94.6838 85.6147 92.4731 85.0686 90.5274 83.9585L90.5162 83.952ZM100.303 64.8025C99.2687 64.1119 98.0069 63.7508 96.4865 63.7508C94.9407 63.7508 93.6153 64.1253 92.4861 64.8532C91.3482 65.5871 90.4569 66.6068 89.8116 67.9312C89.5061 68.5729 89.2744 69.2658 89.1182 70.0121H103.508C103.369 69.1996 103.135 68.4443 102.809 67.7435C102.221 66.4818 101.389 65.5094 100.31 64.8069L100.303 64.8025Z" fill="#112D57"/>
<path d="M117.614 60.5685L117.62 60.5651C119.125 59.6637 120.786 59.2153 122.588 59.2153C123.974 59.2153 125.133 59.4137 126 59.8768C126.45 60.1169 126.827 60.4486 127.048 60.9016C127.272 61.3622 127.294 61.8652 127.177 62.3637L127.173 62.3809C127.028 62.9396 126.739 63.444 126.222 63.7155C125.812 63.945 125.339 64.0096 124.852 63.9739L124.848 63.9737C124.475 63.9441 124.043 63.9145 123.551 63.8849L123.541 63.8843L123.531 63.8833C121.986 63.7417 120.639 63.9142 119.474 64.3766L119.466 64.3798C118.329 64.8143 117.436 65.4833 116.763 66.3838C116.135 67.2645 115.809 68.3231 115.809 69.5929V82.989C115.809 83.6593 115.624 84.2753 115.173 84.7385C114.722 85.2019 114.122 85.3916 113.469 85.3916C112.817 85.3916 112.217 85.2019 111.766 84.7385C111.315 84.2753 111.13 83.6593 111.13 82.989V61.8867C111.13 61.2166 111.315 60.6006 111.766 60.1372C112.217 59.6739 112.817 59.4842 113.469 59.4842C114.122 59.4842 114.722 59.6739 115.173 60.1372C115.624 60.6006 115.809 61.2166 115.809 61.8867V61.9716C116.357 61.4373 116.959 60.9692 117.614 60.5685Z" fill="#112D57"/>
<path d="M131.137 84.7392L131.116 84.7144C130.688 84.231 130.502 83.6173 130.502 82.9442V72.0411C130.502 71.3711 130.687 70.755 131.138 70.2916C131.606 69.8111 132.212 69.5938 132.885 69.5938C133.53 69.5938 134.109 69.8123 134.546 70.2913C135.02 70.7481 135.224 71.3627 135.224 72.0411V82.9442C135.224 83.6359 135.013 84.2579 134.546 84.7385C134.102 85.1944 133.521 85.3916 132.885 85.3916C132.23 85.3916 131.632 85.201 131.161 84.7615L131.137 84.7392Z" fill="#112D57"/>
<path fill-rule="evenodd" clip-rule="evenodd" d="M175.473 83.9047L175.464 83.9005C173.59 82.7325 172.098 81.1519 170.996 79.1688L170.991 79.1614C169.911 77.1659 169.378 74.9263 169.378 72.4595C169.378 69.9609 169.927 67.7034 171.039 65.7053L171.043 65.698C172.178 63.713 173.717 62.1476 175.652 61.0114C177.595 59.8394 179.781 59.2593 182.189 59.2593C184.596 59.2593 186.767 59.8389 188.684 61.0125C190.619 62.1488 192.143 63.7149 193.248 65.7013C194.39 67.6969 194.968 69.9527 194.999 72.4507V72.4595V82.9881C194.999 83.6626 194.78 84.2651 194.319 84.7377L194.308 84.7494L194.296 84.7607C193.833 85.1933 193.254 85.3907 192.616 85.3907C191.978 85.3907 191.399 85.1933 190.935 84.7607L190.924 84.7494L190.912 84.7377C190.452 84.2651 190.232 83.6626 190.232 82.9881V82.1692C189.533 82.8838 188.74 83.5077 187.856 84.0402L187.852 84.0421C186.08 85.096 184.069 85.6147 181.84 85.6147C179.49 85.6147 177.361 85.0492 175.473 83.9047ZM186.331 79.9685L186.337 79.965C187.568 79.2226 188.53 78.2093 189.227 76.9145L189.229 76.9101C189.953 75.5887 190.321 74.1104 190.321 72.4595C190.321 70.7762 189.952 69.3009 189.233 68.0142L189.227 68.0044C188.53 66.7096 187.568 65.6962 186.337 64.9538L186.323 64.9445C185.131 64.1839 183.76 63.7956 182.189 63.7956C180.648 63.7956 179.274 64.1824 178.05 64.948L178.04 64.9539C176.807 65.6977 175.828 66.714 175.101 68.0142C174.38 69.3009 174.014 70.7762 174.014 72.4595C174.014 74.1092 174.379 75.5867 175.102 76.9075C175.83 78.2063 176.807 79.2218 178.04 79.9652C179.265 80.7042 180.643 81.0784 182.189 81.0784C183.765 81.0784 185.14 80.7029 186.331 79.9685Z" fill="#112D57"/>
<path d="M68.9712 83.8218L68.9725 83.8244C69.182 84.29 69.4658 84.688 69.8454 84.9696C70.2329 85.2569 70.6808 85.3933 71.1608 85.3933C71.6578 85.3933 72.1234 85.2637 72.5275 84.9798C72.927 84.6989 73.2242 84.2966 73.4376 83.8218L82.988 62.6844C83.2459 62.1479 83.2631 61.5758 83.0563 61.0177C82.8476 60.4239 82.4458 59.978 81.893 59.6941L81.8751 59.685L81.8567 59.6768C81.2941 59.4293 80.7046 59.4104 80.121 59.6067C79.5167 59.7885 79.0766 60.2059 78.827 60.7984L71.1719 78.0555L63.3942 60.7689L63.3843 60.7501C63.1085 60.224 62.6961 59.8353 62.1562 59.6221C61.5791 59.3942 60.9896 59.4534 60.4369 59.7347C59.8769 60.0051 59.4441 60.4242 59.2247 61.0099C59.0111 61.5802 59.0364 62.1648 59.2856 62.7195L68.9712 83.8218Z" fill="#112D57"/>
<path fill-rule="evenodd" clip-rule="evenodd" d="M141.504 79.1767C142.64 81.1613 144.177 82.7405 146.11 83.9061L146.117 83.9102C148.062 85.0513 150.245 85.6155 152.651 85.6155C155.028 85.6155 157.183 85.0509 159.098 83.9092C161.033 82.7738 162.559 81.2232 163.667 79.2646C164.804 77.2742 165.399 75.0518 165.461 72.6125V51.4474C165.461 50.7633 165.253 50.1441 164.769 49.6863C164.311 49.2215 163.729 49 163.078 49C162.426 49 161.844 49.2215 161.385 49.6864C160.902 50.1442 160.694 50.7633 160.694 51.4474V62.7102C159.891 61.8948 158.957 61.2049 157.898 60.6402C156.222 59.7159 154.351 59.2599 152.302 59.2599C149.949 59.2599 147.818 59.8416 145.931 61.0169C144.053 62.1555 142.56 63.7225 141.456 65.7059L141.453 65.7133C140.373 67.7087 139.84 69.9483 139.84 72.4153C139.84 74.9137 140.389 77.1713 141.5 79.1694L141.504 79.1767ZM159.695 68.0149C160.415 69.3033 160.783 70.7642 160.783 72.4153C160.783 74.0984 160.414 75.5739 159.695 76.8606L159.689 76.8704C158.991 78.1666 158.028 79.1971 156.792 79.9702C155.6 80.704 154.227 81.079 152.651 81.079C151.107 81.079 149.732 80.7058 148.507 79.9685C147.27 79.1943 146.29 78.1612 145.563 76.8606C144.843 75.5739 144.476 74.0984 144.476 72.4153C144.476 70.7642 144.842 69.3033 145.563 68.0149L145.566 68.0094C146.294 66.6798 147.271 65.6513 148.502 64.9096C149.727 64.1706 151.105 63.7962 152.651 63.7962C154.227 63.7962 155.601 64.1718 156.793 64.9062L156.799 64.9096C158.027 65.65 158.988 66.6755 159.686 67.9997L159.695 68.0149Z" fill="#112D57"/>
<path d="M131.137 66.8913L131.116 66.8666C130.688 66.3832 130.502 65.7694 130.502 65.0963V62.4307C130.502 61.7606 130.687 61.1446 131.138 60.6812C131.606 60.2006 132.212 59.9834 132.885 59.9834C133.53 59.9834 134.109 60.2018 134.546 60.681C135.02 61.1376 135.224 61.7522 135.224 62.4307V65.0963C135.224 65.7881 135.013 66.4101 134.546 66.8906C134.101 67.3465 133.521 67.5436 132.885 67.5436C132.23 67.5436 131.632 67.3531 131.161 66.9137L131.137 66.8913Z" fill="#37D5C7"/>
</svg>
